P2
# CREATOR: GIMP PNM Filter Version 1.1
120 68
255
83
87
91
91
94
100
101
105
109
113
115
119
122
127
129
133
136
140
144
148
151
155
159
164
166
170
173
175
178
181
15
0
4
17
13
9
9
8
2
14
49
174
215
218
218
220
221
221
223
223
222
226
226
226
226
226
226
226
226
226
226
226
226
226
226
226
227
226
226
226
226
224
224
223
222
221
218
217
218
217
215
214
170
38
6
9
12
18
7
14
28
43
70
49
9
115
176
171
167
164
158
155
148
144
142
137
135
133
128
125
121
118
114
111
108
105
101
98
95
91
84
87
91
93
99
101
104
107
113
114
118
122
127
129
132
136
139
144
148
151
155
159
162
166
169
173
176
178
183
180
8
1
14
25
27
12
4
4
6
5
16
42
135
216
225
224
225
227
227
226
226
226
226
226
227
226
227
226
226
226
226
226
226
226
226
227
226
226
226
226
227
226
228
226
226
226
224
222
224
222
225
154
43
14
12
14
18
10
15
25
38
64
98
71
17
140
179
175
171
167
161
158
151
148
144
142
137
134
131
127
123
122
117
114
109
107
101
100
96
94
87
90
91
95
99
103
107
111
115
117
122
125
129
132
136
139
142
146
149
153
158
162
164
167
172
176
178
181
187
186
15
1
22
34
26
17
6
2
12
14
10
15
31
106
218
232
228
230
230
228
227
226
227
226
227
226
226
227
226
226
226
227
226
226
226
226
226
226
227
226
227
226
227
228
227
230
228
226
229
221
121
22
7
11
5
13
18
20
31
33
59
92
102
82
27
150
181
179
175
171
165
161
156
151
148
144
141
137
133
129
127
122
119
115
113
108
105
101
99
95
87
91
94
99
101
105
109
113
117
119
123
128
131
134
139
143
146
149
153
157
159
164
167
173
175
178
183
186
190
199
31
6
43
55
40
25
33
30
18
14
12
11
10
14
57
171
225
231
232
229
229
227
226
227
226
227
227
226
226
227
226
227
226
226
227
226
228
226
227
226
228
227
226
226
228
229
229
230
211
118
22
14
6
7
20
30
34
34
39
54
93
111
142
101
32
159
186
181
178
173
166
162
158
156
152
148
144
140
137
133
131
127
122
118
115
111
108
104
101
97
91
94
98
101
104
108
113
115
119
122
128
130
134
137
141
146
149
153
157
159
163
167
172
175
177
183
186
190
194
202
76
7
63
86
74
45
37
32
31
31
26
18
14
16
9
21
105
203
232
230
229
228
228
221
216
224
226
226
226
226
223
227
225
225
225
224
226
228
227
229
227
228
224
220
228
229
230
221
103
28
14
14
15
22
28
34
27
29
39
56
88
109
143
101
38
169
189
186
182
176
172
166
162
158
153
151
147
143
140
135
133
128
125
122
118
114
111
107
103
99
92
98
101
103
108
111
114
118
122
127
130
134
135
141
144
149
151
155
159
162
166
171
173
177
180
185
189
194
196
203
130
10
75
112
98
75
45
25
20
14
10
10
10
6
8
9
21
61
172
223
212
206
189
183
173
195
206
181
157
188
206
202
205
208
215
206
207
200
188
180
219
217
186
155
175
194
202
143
42
7
7
18
22
31
32
34
53
45
44
67
105
150
163
104
60
183
193
189
186
178
173
170
164
161
157
154
150
144
142
138
135
131
127
122
119
115
113
108
105
101
95
98
102
105
108
113
117
119
125
128
132
134
139
143
147
151
156
159
162
166
171
175
176
180
185
187
191
196
199
204
173
18
76
139
108
48
26
21
32
28
23
13
32
18
10
9
12
20
66
176
183
166
145
142
89
152
177
156
121
174
189
202
202
174
176
197
201
172
162
140
205
175
119
125
121
162
166
136
77
29
9
14
23
41
41
52
60
97
120
133
135
177
160
112
103
198
199
192
187
180
176
172
167
164
159
157
152
148
145
141
137
133
129
127
122
118
115
111
108
104
96
101
104
107
111
115
119
122
127
131
133
138
143
145
148
154
158
161
164
169
172
176
180
184
187
191
196
200
204
205
190
37
63
149
120
52
31
31
26
32
30
17
23
21
16
8
12
38
99
141
155
118
103
96
113
165
163
151
136
154
199
203
152
145
156
196
187
164
133
153
148
149
105
84
110
129
93
82
73
49
32
27
29
45
45
52
64
95
155
174
170
167
149
108
135
203
200
195
190
184
178
175
171
166
162
159
156
151
148
144
140
136
133
128
123
121
117
113
109
105
99
101
105
109
113
117
121
125
129
133
136
142
144
148
151
156
159
164
167
171
175
178
183
187
190
194
198
201
204
208
204
66
56
158
129
67
30
22
27
34
31
34
25
16
26
7
45
87
100
93
114
95
84
101
124
170
159
144
141
141
176
170
172
179
181
172
169
153
160
160
118
98
111
101
78
73
54
41
43
41
54
21
27
41
39
53
89
123
150
185
191
180
174
107
165
205
203
198
194
187
181
177
173
170
166
162
159
153
149
147
144
137
134
131
127
122
119
115
111
107
99
104
108
111
115
119
123
127
129
134
137
143
147
151
155
159
162
166
171
173
178
181
186
190
194
198
202
204
209
212
216
135
48
145
161
107
51
55
53
46
30
29
33
15
20
60
67
70
82
53
58
82
93
141
143
181
140
139
129
112
103
131
163
177
163
132
97
131
148
148
139
126
108
120
94
119
81
52
30
40
44
60
81
74
58
95
113
127
160
183
184
190
181
101
200
208
205
201
196
190
186
180
176
173
170
164
161
157
153
148
144
141
136
133
129
127
122
117
113
108
101
105
109
113
117
121
125
129
133
137
142
144
149
153
158
162
166
170
173
176
180
185
187
192
196
199
204
207
210
213
216
212
65
125
151
139
97
72
65
57
45
34
29
39
47
43
55
48
51
55
64
69
96
135
116
173
160
114
149
141
119
126
157
142
136
116
107
104
94
123
159
166
145
119
76
100
90
75
55
34
43
68
72
98
108
113
132
149
176
186
203
208
147
127
217
211
207
204
199
194
187
185
178
176
171
166
162
159
156
151
147
144
137
134
133
128
122
121
115
111
104
108
113
115
119
122
128
132
134
138
143
147
151
156
159
164
167
171
175
180
183
187
190
195
197
201
204
208
212
217
221
230
142
85
164
127
93
89
62
57
58
53
53
60
77
74
39
37
42
65
68
76
86
100
155
177
133
92
123
148
135
132
138
118
118
133
135
109
121
93
148
147
121
106
75
99
74
102
60
63
25
34
45
87
111
86
96
151
169
190
196
195
107
187
219
213
210
205
201
196
190
187
183
177
173
170
166
162
158
153
148
145
142
137
133
129
125
121
117
113
105
108
113
118
119
127
129
133
136
141
145
151
155
158
162
166
171
173
177
181
186
189
192
196
199
203
208
210
216
218
223
228
225
96
136
154
110
87
79
57
66
107
154
114
83
43
45
49
58
58
54
103
99
115
184
202
191
120
125
117
148
123
148
129
111
116
122
85
106
111
174
197
180
121
102
106
67
96
97
91
54
47
48
75
85
109
140
153
106
114
91
124
179
198
220
217
213
210
204
199
194
190
183
180
176
172
167
163
159
156
151
148
144
140
136
132
127
123
119
115
107
113
115
119
123
127
131
136
140
143
147
151
157
159
163
167
172
176
180
184
187
191
195
199
202
206
209
213
217
221
226
227
227
155
97
186
150
111
100
111
144
185
137
92
76
70
75
48
93
77
61
107
104
162
149
177
187
196
141
92
115
111
98
86
109
141
96
95
141
139
161
172
176
137
78
84
85
71
89
96
97
55
62
69
64
99
89
129
114
58
69
72
159
194
224
220
215
211
204
201
197
192
186
181
178
173
170
166
161
158
154
149
146
141
137
133
129
125
121
115
108
113
115
121
125
128
133
136
142
146
149
155
158
162
166
171
173
177
181
186
191
193
198
202
204
208
212
216
221
224
226
227
230
178
47
117
128
98
89
97
143
111
77
84
78
48
51
48
115
100
85
128
97
111
108
156
158
158
155
106
89
105
90
73
111
122
91
115
131
147
123
124
95
89
76
113
87
53
80
74
99
60
79
57
56
57
77
119
136
77
55
75
171
190
225
222
218
211
208
204
198
192
187
184
180
176
172
167
162
159
157
151
148
144
139
135
132
127
122
118
108
115
118
122
127
132
133
137
143
147
151
156
159
163
169
171
176
180
186
190
192
195
200
203
206
210
214
218
222
226
226
227
228
212
130
70
53
45
78
106
97
108
85
49
76
68
53
63
106
80
85
128
86
69
98
117
129
146
100
87
85
122
107
84
96
89
71
117
97
121
129
122
103
60
56
86
68
133
114
55
73
81
58
83
65
62
84
121
112
89
106
97
174
197
228
225
218
214
210
204
201
195
191
186
183
178
175
170
166
162
158
155
148
144
141
136
133
128
122
119
113
115
121
125
128
132
136
141
145
149
153
157
162
166
171
173
177
183
186
190
194
198
202
204
208
213
216
218
223
226
226
227
227
218
171
97
40
46
87
117
137
89
107
129
147
141
114
125
117
89
114
60
67
112
95
139
126
94
85
114
65
94
80
77
94
64
97
117
105
108
141
143
59
97
84
69
98
110
104
100
100
84
77
97
86
61
66
75
91
89
82
112
165
216
230
227
220
217
211
208
204
199
194
189
185
180
176
173
167
163
161
155
151
145
142
136
134
129
127
121
114
117
121
127
129
135
137
142
147
151
155
159
164
167
172
176
180
184
189
191
197
199
203
207
212
216
218
221
224
226
226
226
226
208
141
100
96
107
114
89
82
68
44
39
36
42
53
78
111
155
138
57
103
114
90
113
103
95
98
104
73
77
94
61
75
80
99
94
88
87
114
124
88
102
86
95
117
149
150
132
114
102
88
55
47
47
45
51
89
88
87
145
177
223
232
228
224
218
214
210
204
201
197
190
187
181
178
173
170
166
161
158
152
148
144
141
136
131
127
122
115
119
122
127
130
134
140
144
148
152
156
161
164
169
173
177
183
187
189
193
198
202
204
209
212
216
220
222
224
224
226
227
226
172
115
126
152
84
42
18
3
0
0
0
0
0
1
1
10
33
92
150
95
63
82
96
86
95
76
77
70
77
75
89
71
72
90
58
72
74
105
93
63
82
77
103
136
154
121
52
10
2
2
1
0
0
2
4
22
43
59
98
191
221
232
229
225
219
215
211
205
202
195
190
188
183
180
175
172
167
162
159
156
151
145
143
136
132
129
123
115
119
123
128
133
135
141
145
149
153
159
162
166
171
175
180
184
187
190
197
199
203
207
212
216
218
222
224
224
224
226
226
216
167
125
119
39
12
1
4
17
104
149
162
145
76
30
21
10
0
3
48
115
92
69
80
65
57
61
70
76
82
95
145
142
80
82
67
73
72
85
85
70
67
70
121
124
55
1
0
0
1
0
1
0
0
0
0
0
1
14
43
133
218
233
229
227
222
217
213
208
202
198
193
189
186
180
178
173
170
164
159
156
152
147
142
138
133
129
125
115
121
125
129
133
137
143
147
151
155
159
164
169
173
176
180
185
190
193
198
202
204
209
212
216
220
223
223
223
224
224
222
212
174
91
27
2
2
5
8
13
25
13
1
0
3
12
24
22
18
1
0
15
104
94
82
58
105
71
75
60
88
80
61
70
71
70
86
81
86
104
99
74
71
100
83
16
0
0
1
1
1
0
1
0
0
0
0
0
0
0
2
24
139
236
232
227
223
218
216
212
206
200
194
190
187
184
180
173
171
166
162
157
153
148
144
140
135
132
127
117
122
127
131
133
139
144
148
151
157
161
164
170
175
177
183
187
191
194
198
202
206
212
214
217
222
222
224
226
224
222
216
200
95
41
2
2
4
4
2
2
2
2
1
0
1
2
2
2
6
5
2
0
0
99
83
89
38
61
49
67
82
71
73
85
68
58
46
71
48
64
118
61
109
90
0
0
1
0
0
1
1
1
2
1
2
0
0
1
2
1
0
0
37
158
229
230
224
220
216
212
207
203
197
192
189
184
180
176
172
167
162
158
155
149
145
140
137
133
129
119
122
127
132
136
140
144
148
153
157
162
166
173
175
180
184
187
191
197
200
204
209
212
216
220
222
226
226
224
223
219
207
128
63
0
2
2
2
2
2
2
2
0
0
0
0
2
4
2
2
2
4
1
0
10
134
129
42
39
59
92
97
88
99
87
67
60
62
45
57
74
64
115
104
6
1
1
0
6
6
2
2
2
2
2
2
2
2
2
1
1
0
1
2
29
154
231
226
222
218
214
210
204
198
193
190
185
180
176
173
169
163
159
156
151
147
141
137
133
129
119
123
128
132
136
142
146
150
156
159
163
167
173
176
180
186
190
194
198
202
206
209
213
216
221
223
222
223
224
223
213
156
82
0
1
2
2
2
2
2
1
2
14
48
6
9
6
2
2
2
2
2
2
0
0
61
157
60
47
54
71
82
101
97
98
56
71
47
63
90
117
136
121
30
0
0
0
38
177
76
48
61
0
4
1
2
2
2
1
1
0
1
0
1
3
53
179
231
222
218
216
210
206
199
194
190
187
182
179
173
171
164
162
157
152
148
144
141
133
129
121
125
129
133
137
144
148
151
156
161
166
169
173
178
181
187
191
194
198
204
207
212
214
218
221
223
223
224
223
220
198
133
20
1
2
2
1
2
2
4
2
1
81
147
14
75
27
2
4
2
2
2
2
1
0
14
143
134
53
51
49
97
112
100
103
77
83
77
77
128
136
142
90
0
0
1
2
6
29
9
5
6
4
1
1
2
2
2
15
2
2
0
1
0
0
17
83
227
226
218
217
212
206
199
197
192
187
184
178
175
171
166
162
158
153
149
144
141
136
131
121
125
129
133
139
143
148
151
157
162
166
170
175
178
184
187
191
196
202
204
208
212
216
220
222
223
224
223
223
218
188
80
6
2
2
0
55
4
2
2
2
2
0
0
3
0
1
4
2
2
2
9
72
20
1
0
91
140
72
72
65
73
112
144
120
106
88
112
99
185
165
107
20
0
0
1
2
2
0
0
1
1
0
1
0
0
0
6
127
67
0
1
0
2
0
0
69
174
227
222
218
213
206
201
198
193
190
186
180
176
173
167
162
158
153
149
144
141
136
132
122
127
131
134
139
143
148
153
159
161
166
171
175
178
184
188
191
195
201
204
209
214
217
221
222
223
222
224
222
210
161
58
0
4
5
1
28
0
0
0
0
0
0
0
0
1
0
2
2
2
2
5
48
20
0
0
52
112
73
75
90
97
108
152
151
114
142
146
112
161
129
103
0
0
1
1
0
0
0
1
0
0
1
0
1
1
0
0
0
0
1
0
1
0
0
0
33
142
226
222
218
215
208
202
199
194
191
186
181
176
173
170
164
159
155
151
147
141
137
133
122
127
132
136
140
144
148
153
158
162
166
172
176
180
184
190
194
198
200
204
209
213
218
221
224
222
222
223
222
200
103
41
0
7
6
0
1
1
0
1
0
0
0
0
1
1
0
0
1
0
1
1
1
0
0
0
22
93
130
89
115
99
123
167
158
136
160
141
155
175
135
70
0
0
1
0
0
0
0
0
0
0
0
0
0
0
1
1
0
0
1
0
1
0
0
0
14
125
222
223
218
215
207
203
199
195
191
187
183
180
173
170
164
161
156
151
145
143
137
132
122
128
132
136
142
145
151
155
159
163
169
173
177
181
187
191
194
199
202
206
212
214
218
221
223
223
216
208
208
151
139
25
0
0
0
0
0
0
1
0
0
0
0
1
0
0
1
1
1
1
0
1
0
0
0
0
13
35
62
102
148
180
160
202
215
192
192
129
126
110
65
38
0
0
0
0
1
0
0
1
0
0
0
0
1
1
0
0
0
0
0
1
1
0
0
0
10
85
150
211
220
215
209
204
201
196
191
187
183
178
175
170
166
161
157
152
148
144
139
133
122
128
132
137
142
144
150
156
159
163
169
173
177
181
186
191
194
198
202
207
212
216
218
223
226
218
96
45
84
72
44
30
0
0
0
0
0
1
0
0
0
1
0
0
0
0
1
0
0
0
0
1
0
0
0
0
18
55
55
94
176
181
174
188
196
200
195
108
74
59
48
33
0
1
0
1
0
1
0
0
0
0
0
0
1
0
0
1
0
0
1
0
1
1
0
1
9
96
84
126
163
170
212
204
199
197
193
187
185
180
175
171
166
162
158
152
148
144
140
134
123
129
133
137
141
145
152
156
159
163
169
173
177
181
187
190
194
200
203
207
212
217
218
223
222
225
187
104
61
18
39
42
0
0
0
0
0
0
0
0
0
1
0
0
1
0
0
0
1
2
1
0
0
1
0
0
35
51
28
80
149
162
156
170
155
161
170
86
23
16
59
33
0
1
0
0
1
0
0
1
1
1
0
0
0
0
0
0
1
1
0
2
0
0
1
0
13
55
29
52
14
54
217
204
200
198
194
189
185
180
175
171
166
162
158
152
148
143
140
134
125
129
133
137
142
147
150
156
161
164
170
173
177
183
187
191
196
200
204
208
213
216
220
222
223
222
222
230
176
70
76
47
0
0
1
0
1
1
0
0
1
0
0
1
0
1
0
0
1
0
1
0
1
1
0
0
65
61
25
71
124
161
176
190
184
197
187
87
10
14
60
52
0
0
0
1
0
0
1
0
0
0
0
0
0
0
1
0
0
0
1
0
1
1
0
0
11
45
5
83
173
207
209
204
200
199
194
189
185
180
176
172
167
162
158
153
150
144
140
136
125
129
134
137
143
147
151
157
161
166
171
175
177
184
189
191
196
201
204
209
212
216
220
223
222
221
221
218
221
216
140
58
2
1
1
0
0
0
0
0
1
0
1
0
0
0
0
0
0
0
0
1
0
0
1
0
93
63
34
97
188
187
201
189
184
204
204
148
54
64
54
89
0
0
0
1
0
1
0
0
0
1
1
1
1
0
0
0
1
0
1
0
0
0
0
0
35
103
110
192
229
218
209
204
202
199
193
189
186
180
176
172
166
163
158
154
148
144
140
135
125
129
134
138
144
147
151
157
161
166
171
175
178
185
188
191
195
200
204
208
213
217
220
222
222
222
222
222
218
197
162
90
9
0
0
1
1
0
1
0
0
0
0
0
0
0
0
1
0
1
0
0
0
0
0
34
90
92
46
126
174
174
190
194
176
202
207
173
89
118
89
108
11
0
0
0
0
0
0
1
0
2
0
1
0
0
2
1
0
1
0
0
0
0
2
0
89
173
226
226
218
216
212
204
202
198
193
189
186
180
176
173
167
164
158
155
149
144
140
134
127
129
133
137
142
148
153
157
161
166
170
173
178
185
188
190
197
200
204
209
212
217
221
223
223
224
222
221
221
205
141
103
43
0
0
0
0
0
0
1
1
0
0
0
0
1
0
1
0
1
0
0
0
1
2
77
91
84
51
139
136
147
165
149
145
154
170
185
120
98
85
27
90
0
1
1
1
0
1
0
1
0
0
0
0
1
0
0
1
0
1
0
0
0
0
23
129
213
223
224
221
216
210
206
203
198
193
189
186
181
177
171
167
162
159
155
149
147
140
134
125
129
133
139
143
148
151
157
159
166
170
173
178
183
187
191
197
200
204
208
212
217
221
223
224
223
223
223
218
205
164
114
87
25
0
1
0
0
0
1
1
1
0
0
0
0
0
0
1
1
0
0
0
0
56
74
35
40
95
97
63
70
72
59
55
73
81
102
140
59
30
14
79
33
0
1
1
1
0
0
1
1
0
1
0
0
0
0
0
0
1
0
0
0
2
89
161
217
224
223
218
216
210
206
202
198
193
190
186
180
176
172
167
162
158
153
149
144
140
134
125
129
133
138
143
148
151
156
161
166
171
173
178
184
187
191
196
200
205
208
213
216
220
224
223
224
224
221
216
210
191
159
83
79
20
0
0
1
1
0
0
0
1
1
2
0
0
0
0
0
1
0
0
42
103
25
32
74
126
44
21
27
23
28
31
27
43
40
63
73
83
36
29
79
6
0
0
0
0
0
0
0
0
0
0
1
0
0
0
1
0
1
1
0
60
102
163
219
226
223
220
216
210
206
202
198
193
190
185
180
176
172
167
162
157
154
149
145
141
134
125
129
133
137
143
147
152
158
161
166
170
173
178
183
187
191
198
200
204
210
213
216
220
223
223
222
223
223
219
205
199
163
128
75
98
23
2
0
1
0
0
0
0
1
0
0
0
1
0
1
0
2
48
98
24
41
61
151
135
19
4
1
15
33
23
19
9
2
20
91
148
88
42
45
83
4
0
0
0
0
0
0
0
0
0
1
0
0
0
0
0
0
0
37
117
151
183
217
223
223
220
216
210
206
200
198
193
189
186
181
178
172
167
162
159
153
148
144
141
136
125
129
133
137
142
147
151
156
159
166
171
175
178
183
187
190
195
199
204
207
212
216
220
223
223
223
223
223
218
198
185
180
121
92
73
99
78
20
0
0
0
0
1
1
0
1
0
0
0
0
37
69
66
32
46
80
139
180
187
114
46
17
13
31
33
17
26
50
120
179
173
121
73
45
53
79
33
0
0
0
0
1
0
0
1
0
0
1
0
0
0
6
49
126
153
181
201
217
221
218
218
214
210
206
202
198
193
188
185
181
176
172
166
162
159
153
148
144
140
135
123
128
133
137
141
147
151
155
159
163
169
173
178
181
187
190
196
199
203
207
212
214
218
222
223
222
222
221
211
186
162
172
131
74
62
81
83
106
80
28
0
0
0
0
0
0
0
0
44
86
67
41
40
52
111
147
187
157
171
176
147
102
36
21
14
32
92
161
183
155
160
179
147
118
38
27
59
84
13
0
0
1
0
1
0
0
0
0
0
0
48
95
105
134
173
187
206
212
222
221
216
212
209
204
202
198
193
189
185
180
176
171
166
163
157
153
150
144
139
134
122
129
132
137
143
145
151
156
159
164
169
173
176
183
186
191
194
199
203
207
212
216
218
222
223
224
222
217
210
189
151
163
138
100
36
34
70
52
56
100
108
74
70
70
72
73
76
108
70
28
31
33
81
135
112
142
175
138
132
165
187
191
113
29
17
94
171
198
189
173
161
148
172
162
64
27
23
11
79
84
25
7
6
6
6
6
6
14
61
106
87
52
107
146
134
194
210
198
217
219
216
210
208
204
199
195
190
187
184
178
175
171
166
162
157
152
147
144
140
133
122
128
132
136
141
145
151
153
159
162
167
173
176
180
186
190
194
198
202
206
210
213
218
222
224
224
222
216
206
182
141
148
141
104
75
45
40
53
35
16
21
41
34
40
42
35
43
19
23
17
21
68
97
155
173
187
147
175
159
154
194
199
161
91
51
138
171
204
194
172
175
191
158
170
167
114
55
30
19
25
55
65
58
61
67
72
81
86
52
27
22
62
85
103
121
173
190
176
204
212
212
210
207
204
199
195
190
189
184
178
173
170
164
161
157
151
147
143
138
133
122
127
132
135
140
144
148
153
158
162
167
172
176
180
185
190
192
198
201
204
209
212
217
221
224
223
222
216
205
176
141
135
128
94
96
45
11
4
15
14
5
0
6
15
10
21
18
14
28
21
61
123
178
173
131
124
143
182
173
170
179
121
134
135
58
121
113
131
173
191
197
182
170
153
102
140
119
44
26
39
45
39
20
9
6
8
14
33
72
75
81
81
83
126
164
186
177
167
199
212
212
210
208
203
199
195
191
187
183
178
173
170
166
161
156
151
145
143
136
133
121
127
131
136
141
143
148
152
157
162
166
171
176
180
183
187
191
194
202
204
208
212
216
221
223
223
222
214
202
179
132
114
100
55
95
74
28
16
12
29
43
37
34
32
24
12
20
29
46
91
145
146
111
99
104
170
184
176
179
164
136
132
112
89
40
100
128
126
158
190
187
187
177
195
200
147
130
59
28
24
32
47
37
13
31
20
9
10
12
22
27
67
78
99
155
185
147
157
193
209
212
209
204
202
198
193
190
186
180
176
173
169
166
159
155
149
145
141
138
132
121
127
131
134
139
143
148
152
156
159
164
171
173
178
181
187
191
194
199
203
207
212
216
218
222
223
221
212
198
170
108
82
59
52
72
102
91
90
81
60
40
21
5
2
2
12
45
50
56
45
100
89
100
177
173
188
148
159
143
175
123
120
100
57
35
56
103
131
135
119
168
154
179
177
160
189
185
177
136
82
46
26
34
19
42
21
15
15
19
27
28
19
41
112
167
181
136
152
184
206
209
208
206
200
198
192
189
184
180
176
173
167
162
158
153
150
145
140
136
132
119
123
129
133
136
142
147
152
156
161
163
170
172
176
183
187
190
194
199
202
204
212
216
218
222
226
220
211
192
169
127
95
58
41
66
74
96
93
70
57
41
15
5
11
26
54
107
84
114
143
136
135
175
160
96
116
121
135
167
135
118
100
70
28
22
44
61
110
126
163
161
147
168
148
95
128
139
144
142
184
159
135
84
45
33
42
47
32
39
44
67
94
118
143
163
164
112
146
183
200
204
204
204
200
196
191
188
185
180
176
171
166
161
158
152
148
144
141
136
129
119
122
128
132
136
142
145
148
153
159
162
167
172
176
180
185
189
192
197
202
204
208
212
217
220
222
218
205
179
147
109
77
56
21
18
28
46
57
56
62
64
81
62
60
79
61
84
138
146
159
143
124
101
126
69
166
169
165
140
112
123
86
33
28
43
28
28
73
83
129
103
150
162
183
130
115
43
72
29
72
105
114
58
40
102
44
20
53
88
77
54
74
81
159
187
129
100
133
178
195
198
203
204
201
195
190
186
183
177
173
170
164
159
157
151
148
144
139
134
129
119
122
127
131
136
141
144
148
153
158
161
166
171
176
177
184
187
191
194
200
203
207
212
214
220
222
212
183
133
100
110
77
75
32
14
25
33
53
69
63
60
55
99
81
63
40
45
83
73
47
33
65
41
100
159
118
86
127
102
101
71
27
42
46
75
49
30
27
50
99
100
122
77
89
115
147
121
117
111
76
70
34
45
50
48
119
126
105
83
90
97
96
116
138
155
106
112
143
175
188
197
199
202
198
194
190
186
181
176
173
167
164
159
155
151
147
143
136
133
128
118
122
127
132
134
139
143
147
151
157
161
164
170
173
178
181
186
190
194
198
203
204
209
214
217
215
207
189
145
106
98
62
54
56
34
16
13
18
38
82
111
112
60
48
30
59
68
44
43
95
112
132
90
111
90
114
114
85
82
36
20
47
75
71
78
58
59
42
17
21
46
77
88
103
98
75
77
62
93
81
48
71
61
85
64
59
74
118
126
105
85
109
144
163
119
99
114
136
144
169
187
195
200
196
191
189
185
178
176
171
166
162
158
155
151
144
141
136
132
128
115
119
125
129
133
137
142
145
151
155
159
163
167
172
176
178
186
190
192
198
202
204
209
212
214
211
205
189
151
111
99
74
52
45
47
28
22
40
109
98
71
71
74
118
150
88
25
8
27
49
46
41
46
49
95
74
57
46
32
24
49
89
94
86
64
63
68
63
69
57
30
30
52
72
80
94
66
37
33
27
49
40
70
68
128
97
64
65
93
123
148
134
122
111
61
89
129
137
120
136
172
191
198
194
190
186
183
178
173
169
166
159
156
152
148
143
139
135
131
125
115
119
123
127
133
137
140
144
148
153
158
163
166
170
175
180
183
187
190
197
199
203
206
210
212
212
206
188
156
103
87
84
74
59
48
62
83
81
13
19
40
73
99
83
37
31
19
24
20
6
16
7
29
52
39
40
27
17
27
49
85
74
83
58
46
53
53
77
70
70
42
43
33
35
56
40
40
35
19
12
14
38
56
90
78
110
106
78
90
99
130
160
120
53
35
54
87
115
145
174
190
191
198
192
189
186
180
176
173
167
164
158
155
152
147
142
139
133
129
125
114
118
122
127
131
134
138
143
148
151
157
159
163
169
173
176
180
186
189
194
197
202
204
209
212
209
180
139
110
97
96
67
58
58
70
66
48
32
19
12
40
42
37
40
52
56
58
30
19
23
16
7
13
24
13
13
17
29
42
77
85
60
101
77
47
34
62
82
56
95
68
69
46
35
25
32
25
17
25
14
16
26
48
46
83
106
74
88
105
109
101
60
46
73
85
82
90
120
161
179
189
192
194
190
187
183
178
176
171
166
162
157
153
149
145
141
136
133
129
122
113
117
119
127
129
133
136
142
147
149
153
159
162
166
172
176
180
183
187
191
197
198
203
207
209
202
126
67
74
77
96
99
75
100
79
59
48
36
38
57
24
6
5
4
15
41
60
51
43
12
2
2
20
2
16
13
25
42
47
53
32
56
79
71
51
59
54
70
61
54
77
69
58
40
29
17
15
15
11
22
28
42
54
88
62
83
91
104
94
87
68
23
29
47
90
86
108
153
178
188
188
189
192
189
186
180
176
173
170
166
159
157
151
148
143
140
136
132
127
122
109
115
119
122
128
132
136
140
143
148
152
157
161
166
169
175
177
183
187
189
192
198
201
204
207
202
167
135
128
70
81
101
102
56
69
54
37
45
62
44
23
12
8
3
5
1
6
28
32
31
25
28
13
8
12
11
24
41
30
30
12
49
68
72
51
49
50
62
65
42
56
45
49
26
19
6
6
9
17
28
51
64
57
73
81
86
96
82
57
18
16
31
32
56
78
82
77
75
98
122
147
168
186
188
183
178
176
172
166
162
158
156
151
147
142
138
133
129
125
119
108
114
117
122
127
129
134
138
142
148
151
156
159
162
166
171
176
178
184
187
190
196
199
202
204
199
173
142
135
95
76
99
87
72
70
94
74
49
38
34
39
29
16
7
4
0
7
8
2
7
17
25
18
20
16
19
14
19
10
11
6
18
21
23
25
29
25
28
28
16
19
25
21
8
6
6
9
22
43
63
77
81
70
84
87
76
40
15
19
15
12
33
56
69
80
67
63
64
57
54
85
149
180
185
181
176
175
170
164
161
158
152
148
144
141
136
132
129
123
119
108
113
115
119
125
128
133
136
140
144
148
152
157
162
166
170
173
177
183
185
190
192
196
202
202
198
181
147
121
104
87
84
100
100
67
75
91
59
34
26
20
33
36
19
8
13
20
4
2
0
2
1
1
1
0
1
1
0
2
2
2
3
6
7
7
10
8
12
12
11
11
11
11
10
8
13
22
47
56
59
67
67
74
77
48
12
13
3
9
32
30
48
51
53
65
81
93
128
134
134
142
160
183
184
178
175
171
167
163
159
155
151
146
142
139
134
130
127
122
118
107
111
115
117
122
128
129
134
137
143
146
151
153
158
162
166
172
175
178
184
187
190
195
198
201
192
156
121
102
108
100
83
96
76
82
63
59
79
53
38
43
21
24
33
19
21
42
25
14
11
7
2
0
2
0
0
0
1
0
0
2
1
0
0
0
0
0
0
0
0
0
0
0
1
2
6
25
44
48
54
50
35
26
11
1
2
6
20
31
35
48
54
88
86
78
100
98
113
148
152
160
160
184
181
177
173
170
164
161
158
152
148
144
141
136
132
129
123
121
115
105
108
113
118
121
125
128
133
136
141
144
149
152
157
161
166
170
173
176
180
185
188
190
194
198
179
131
110
92
99
92
96
84
82
99
114
71
49
61
62
41
39
22
30
40
35
17
17
27
9
13
9
5
1
1
0
0
1
2
0
0
0
0
0
0
0
0
0
0
0
1
0
0
0
0
0
5
8
10
12
13
6
2
5
6
3
5
21
30
37
46
49
53
76
79
82
87
88
107
130
151
151
180
178
175
171
166
162
159
155
151
147
142
139
133
131
127
122
119
114
103
108
111
115
119
122
127
131
134
139
143
147
151
155
159
162
166
172
173
177
183
186
190
193
196
188
156
103
89
97
67
83
87
62
62
72
84
62
62
61
58
58
27
31
41
34
18
20
9
13
6
13
9
9
2
4
1
0
0
0
0
0
0
0
0
1
0
0
0
0
1
2
2
2
6
9
6
3
2
4
3
2
9
8
8
6
6
4
6
10
18
42
58
69
77
61
82
89
102
120
121
144
173
176
172
169
164
161
157
152
151
144
141
136
133
129
123
121
117
113
101
105
109
113
115
121
125
128
132
136
141
144
148
152
155
159
162
167
172
175
180
184
186
190
193
179
122
107
90
96
94
89
73
60
68
60
78
99
60
40
64
63
69
46
21
41
35
17
20
9
9
12
6
6
13
20
16
6
2
2
2
2
2
2
1
1
2
0
0
0
0
0
1
1
0
1
2
6
10
11
9
8
4
10
26
41
41
20
14
15
14
21
43
53
45
39
48
55
48
80
99
110
151
170
169
164
162
158
153
149
145
143
137
133
129
127
122
118
115
109
100
103
107
109
115
119
122
127
129
133
138
142
147
150
153
158
162
166
170
173
176
180
184
187
190
173
121
68
56
74
99
97
87
53
62
62
73
68
59
79
44
50
60
46
26
23
31
31
22
13
20
5
6
4
9
7
23
18
8
10
13
6
1
6
9
2
2
6
3
2
1
2
7
2
8
8
10
18
11
9
10
6
15
14
28
26
32
46
59
61
54
54
49
57
66
56
56
61
66
77
86
111
139
162
164
162
159
156
152
147
144
141
136
133
129
122
122
115
113
108
99
101
105
108
113
117
119
123
128
133
136
139
144
146
151
155
159
162
166
171
175
177
181
185
179
163
128
107
48
37
67
53
82
93
48
51
47
92
67
65
50
46
41
39
55
16
11
40
24
23
17
25
21
4
10
8
6
6
9
6
33
31
18
3
2
14
19
3
6
11
9
3
20
16
26
18
8
9
16
16
8
10
24
32
30
36
44
35
63
60
45
46
69
70
63
68
76
70
66
70
84
103
134
158
159
161
157
155
148
145
142
138
134
129
128
122
119
115
111
107
96
100
103
107
111
115
117
122
127
129
133
136
141
145
148
151
158
159
163
167
172
175
180
180
163
107
75
83
95
85
56
70
94
101
89
39
43
32
41
67
53
41
45
35
48
61
14
15
23
41
18
20
11
12
23
18
13
5
12
22
6
5
18
24
11
2
5
18
10
7
9
3
8
4
3
2
4
21
10
9
16
25
32
37
58
59
54
45
42
39
47
44
41
49
55
51
54
66
57
74
101
105
131
155
159
158
153
149
145
143
140
134
132
127
122
119
115
113
108
105
94
99
101
105
108
113
115
119
122
127
131
134
139
143
146
150
153
158
162
163
167
172
176
173
161
116
67
85
78
53
69
63
92
76
93
67
50
62
29
65
64
39
46
59
61
25
45
31
16
11
13
42
25
22
17
27
34
21
5
8
15
20
3
2
10
14
12
4
13
15
27
12
15
15
15
20
15
5
16
25
33
39
43
46
34
38
55
60
72
87
84
75
76
76
81
75
65
73
84
66
81
105
135
153
156
155
151
148
143
141
136
133
129
127
121
117
114
109
107
101
93
96
100
104
107
109
114
117
121
127
128
132
136
141
143
147
151
153
158
162
164
170
173
175
157
117
80
66
78
70
65
72
59
77
112
102
64
33
13
32
41
29
48
39
48
45
34
48
39
32
9
12
32
38
32
11
7
56
42
10
3
29
28
24
10
6
34
28
10
5
6
15
13
11
38
30
12
31
30
29
38
51
50
39
53
55
59
58
54
48
44
62
62
53
49
68
60
46
53
68
46
54
91
128
146
150
148
145
141
137
133
129
127
122
119
115
113
108
104
100
91
94
98
100
104
107
111
115
118
122
127
129
132
137
140
144
147
151
155
159
162
166
169
169
135
86
27
27
55
83
84
40
81
81
71
100
81
60
78
17
42
43
35
39
41
59
42
21
56
59
43
15
18
58
47
55
25
6
47
53
19
6
4
11
23
20
3
15
21
19
12
6
4
3
2
13
16
13
21
26
43
44
31
41
53
46
32
25
49
21
42
32
6
16
20
25
15
16
27
26
27
43
65
112
142
147
145
142
141
134
131
128
123
119
117
114
108
105
101
99
88
92
95
99
102
105
108
113
115
119
123
127
131
133
136
142
145
148
151
156
159
162
166
161
107
91
72
42
46
44
53
59
49
63
63
35
59
48
49
46
27
48
32
28
45
46
54
53
38
28
52
70
26
11
8
30
50
42
13
23
53
44
26
18
15
22
28
21
25
24
18
21
23
20
6
15
14
29
53
59
35
44
48
25
12
8
2
12
34
51
41
46
41
39
42
42
42
43
45
43
54
71
87
119
141
146
143
139
136
132
128
125
121
118
114
111
107
104
100
96
87
91
93
96
100
105
105
111
115
117
119
123
129
131
134
137
142
144
148
151
156
159
163
147
76
46
63
46
32
40
32
30
36
69
55
66
19
46
27
67
40
28
25
12
36
55
70
73
48
28
16
35
49
34
13
6
30
63
52
26
11
13
16
42
61
30
10
15
21
27
12
9
13
9
8
13
33
41
53
38
32
28
22
35
37
40
25
13
17
21
54
53
66
76
70
68
60
57
61
64
67
64
75
115
137
142
141
136
133
129
127
122
119
115
113
108
105
101
98
94
