P2
# Created by IrfanView
80 94
255
14 14 14 13 13 13 13 13 13 13 13 14 14 14 14 14 15 
15 15 15 15 15 15 15 16 15 15 15 15 15 16 22 23 
23 23 28 28 17 23 18 10 12 14 12 11 11 11 11 11 
11 12 11 12 11 11 11 11 10 10 10 10 10 10 10 10 
10 11 11 10 10 10 10 11 11 12 13 14 15 16 18 14 14 13 11 11 12 12 12 12 12 11 11 11 13 13 12 14 
14 14 14 14 14 14 14 13 13 12 9 10 27 36 70 64 
95 100 98 113 114 72 68 31 28 4 12 21 13 5 5 8 
9 10 9 10 9 10 10 8 8 7 7 7 9 9 8 10 
10 10 8 8 8 8 10 11 10 10 11 12 13 16 18 16 13 11 12 10 11 9 11 10 10 10 10 10 12 12 11 13 
13 11 13 11 13 11 11 9 15 7 0 56 148 203 202 184 
163 151 160 171 174 164 130 112 98 72 22 21 43 29 24 0 
5 7 7 9 8 9 7 9 7 7 8 8 7 7 7 7 
8 9 7 7 7 8 10 9 10 12 11 14 13 16 17 12 10 10 11 11 9 9 9 9 11 9 9 11 11 11 10 10 
10 10 9 8 8 9 6 7 0 26 103 182 193 196 192 182 
176 172 151 165 185 193 203 185 144 131 94 37 49 47 76 33 
16 0 2 6 7 9 8 8 8 8 8 6 8 8 8 8 
9 9 7 7 7 8 10 11 12 12 11 12 15 14 17 11 11 9 9 9 10 10 10 8 8 8 10 10 9 9 9 8 
4 1 6 34 11 5 1 20 85 151 166 160 168 183 177 181 
175 172 169 138 136 167 201 208 203 188 173 142 112 72 80 35 
44 60 14 3 7 6 6 6 6 6 6 6 6 8 8 6 
6 7 7 7 9 8 9 10 12 12 11 12 15 16 18 11 11 9 11 10 8 8 8 8 9 9 7 8 10 8 7 0 
14 67 49 6 0 1 99 112 176 173 145 138 149 177 182 177 
181 168 143 124 142 111 136 184 182 206 213 188 176 149 110 70 
54 61 30 12 1 5 7 6 6 6 6 6 8 6 8 8 
8 7 7 7 8 10 11 12 10 10 13 12 15 15 17 11 11 9 10 10 8 7 9 9 9 7 7 9 9 8 9 32 
116 73 5 5 12 118 122 148 197 159 171 188 189 186 184 179 
179 178 195 156 94 142 124 112 161 150 194 212 205 199 154 117 
92 98 62 27 14 0 4 6 8 8 8 6 8 7 7 7 
9 9 9 10 10 9 11 10 10 12 13 14 15 15 17 12 10 11 8 8 8 8 9 7 7 7 7 9 7 6 3 30 
90 57 14 8 124 138 72 158 195 187 181 177 167 164 168 183 
175 164 177 191 162 103 161 138 104 108 123 154 196 208 210 186 
139 104 103 93 87 22 0 4 6 6 8 7 9 7 9 9 
8 8 10 10 9 11 11 10 10 11 14 13 15 15 18 12 12 11 9 8 10 10 9 7 8 8 7 7 7 8 8 25 
45 10 31 67 202 104 41 181 199 181 173 181 190 185 174 165 
185 184 187 186 194 153 102 201 134 124 89 116 134 153 169 190 
206 153 119 99 96 95 11 0 7 8 8 9 7 7 9 8 
10 10 10 10 9 11 10 12 12 11 16 13 14 15 18 12 10 12 11 8 8 8 9 7 8 8 8 7 9 6 8 28 
2 15 54 139 216 62 84 208 185 172 178 152 133 131 156 188 
187 175 185 191 179 176 129 174 190 153 122 125 125 144 139 152 
178 193 156 117 105 102 70 0 0 7 7 7 9 9 8 10 
10 10 10 10 9 11 10 10 11 13 14 13 16 16 19 11 12 12 9 8 8 9 9 7 7 7 7 6 11 6 14 8 
19 24 69 171 203 41 141 200 172 202 159 132 142 151 151 164 
169 172 159 182 187 176 183 153 207 174 175 135 144 165 150 153 
142 176 196 161 141 123 101 67 1 4 7 9 7 9 8 10 
8 8 10 10 9 11 12 12 11 13 12 13 16 16 20 12 12 10 9 10 8 9 7 9 7 9 7 5 22 7 13 8 
12 36 143 169 184 96 174 171 187 190 116 125 134 160 180 196 
176 151 137 155 184 174 187 157 202 167 203 152 178 189 179 172 
156 152 176 196 177 172 170 128 21 0 6 8 9 9 8 10 
10 10 11 9 8 9 12 12 11 13 12 13 16 16 20 11 12 10 9 10 8 7 9 9 7 7 7 2 30 19 20 27 
26 31 223 143 164 80 209 170 222 111 60 76 74 85 131 136 
169 156 171 143 177 183 185 160 191 173 202 165 186 193 189 184 
175 162 146 176 184 169 162 99 55 16 0 3 8 8 10 11 
9 9 11 9 10 11 12 11 11 11 14 15 15 17 21 11 12 10 11 11 10 8 8 7 9 9 7 2 47 31 34 43 
46 57 230 162 129 103 200 186 221 26 13 15 61 98 92 143 
150 162 191 142 165 174 164 152 157 170 165 152 171 174 176 186 
142 157 133 129 156 133 131 95 85 92 57 0 4 8 10 9 
9 9 11 9 9 9 12 13 13 12 15 14 16 20 22 12 12 10 11 11 9 10 10 10 8 8 8 1 33 52 74 64 
95 45 173 204 117 112 205 195 197 0 0 25 61 143 164 149 
163 154 168 150 155 156 147 151 144 162 147 165 177 165 166 158 
124 129 127 110 149 199 199 168 106 120 116 51 0 9 9 9 
11 11 11 11 9 10 11 12 14 13 15 14 16 21 24 13 12 10 10 11 11 9 11 11 8 10 10 1 18 58 111 72 
126 53 105 166 108 116 206 202 182 35 55 138 174 172 170 160 
182 155 155 153 144 157 168 175 182 178 177 182 180 167 144 104 
106 107 86 109 155 179 198 188 140 103 94 85 11 9 11 11 
11 10 12 12 10 12 13 14 13 15 14 15 17 20 26 14 11 10 12 11 11 9 9 11 9 10 11 0 61 90 119 110 
75 133 64 86 57 105 182 195 174 10 35 142 179 194 195 190 
193 192 184 171 158 180 193 192 194 192 189 189 185 184 191 187 
180 161 130 132 158 144 152 163 163 93 92 71 6 6 11 10 
10 12 13 12 10 11 14 13 13 16 17 16 17 20 24 12 13 12 10 11 9 11 9 9 9 9 8 0 104 102 95 170 
87 90 113 84 42 84 156 182 180 12 143 196 196 194 190 192 
192 191 193 192 191 191 187 189 189 187 188 188 187 186 186 186 
184 189 186 184 192 190 160 169 147 92 58 47 15 5 11 12 
10 12 11 11 11 12 14 15 16 15 16 17 18 23 26 12 13 11 10 11 11 11 11 11 11 9 8 3 107 146 109 146 
187 59 46 71 57 87 141 164 174 137 203 191 188 190 189 188 
188 188 186 189 187 187 187 189 189 187 187 187 189 187 182 184 
182 178 176 176 150 139 181 181 177 143 85 64 27 5 10 10 
12 11 13 13 14 14 15 14 15 16 19 20 22 22 28 12 13 12 12 10 10 10 10 11 11 10 4 36 105 123 92 190 
132 135 51 50 63 68 125 158 166 175 192 186 189 190 191 190 
188 186 192 190 188 188 190 188 188 188 189 188 191 188 184 184 
178 176 182 180 184 151 112 160 155 157 86 75 47 0 4 11 
11 13 12 14 14 13 14 16 17 17 20 21 19 23 26 11 14 10 10 10 10 12 10 11 11 10 2 50 100 139 85 176 
160 122 141 115 73 57 108 147 158 173 192 188 189 190 189 189 
190 190 190 189 191 191 191 189 190 188 192 190 188 190 188 182 
182 181 178 169 188 190 175 154 194 176 129 93 84 62 2 0 
5 11 14 13 13 15 16 15 18 17 21 20 22 24 27 11 12 10 10 10 10 12 10 10 10 10 3 16 86 133 149 140 
176 130 115 110 79 61 94 131 143 185 189 189 189 190 190 189 
191 189 191 187 191 190 191 189 191 191 191 189 190 188 184 184 
182 177 182 168 161 184 180 166 161 188 185 129 119 120 111 53 
23 6 12 15 13 14 15 16 17 18 20 24 26 26 29 11 10 10 12 12 12 12 12 12 12 10 6 17 84 105 157 168 
145 153 134 117 81 65 83 127 137 190 188 188 189 186 190 191 
191 190 192 190 192 192 190 192 191 189 191 190 189 185 184 182 
182 181 178 178 168 174 171 180 176 185 185 152 143 152 141 64 
42 47 13 15 14 16 15 18 18 21 22 22 27 29 32 12 10 10 12 13 13 11 11 11 12 12 6 43 16 127 102 134 
175 142 111 111 81 46 76 82 167 188 185 190 189 190 189 190 
190 193 191 192 192 192 192 190 188 191 189 190 189 186 185 183 
180 180 178 170 180 171 169 172 172 188 196 183 128 133 126 134 
66 17 13 14 16 15 16 17 19 22 21 21 27 30 31 12 12 10 12 11 11 13 13 13 12 10 7 11 18 34 123 125 
114 153 164 123 80 38 15 128 186 185 182 187 189 190 191 192 
194 196 191 193 192 190 192 192 192 192 190 189 190 188 184 182 
179 177 179 171 179 186 174 166 168 177 189 193 169 129 143 136 
123 66 47 4 10 14 18 18 22 21 21 23 28 29 34 12 12 13 11 11 11 14 12 13 11 10 10 9 31 56 65 92 
114 139 134 115 75 0 55 181 183 182 183 184 189 190 190 193 
196 194 191 191 192 192 192 193 193 193 192 194 197 196 195 190 
184 175 180 171 175 178 182 186 169 160 176 198 163 123 144 174 
141 115 70 36 13 11 18 19 23 24 21 26 30 27 36 12 11 11 13 13 12 14 14 14 13 11 11 8 14 26 25 41 
93 111 70 46 24 22 128 177 178 191 193 193 197 196 191 193 
194 191 195 193 190 192 193 195 199 206 213 214 180 186 167 161 
195 195 187 176 172 177 179 181 173 164 161 170 168 150 136 153 
167 149 130 79 61 19 19 21 23 25 28 27 28 25 36 12 11 11 13 13 12 14 12 12 12 13 10 6 1 10 96 168 
176 122 72 23 1 98 168 193 164 149 156 152 186 195 193 195 
194 189 190 192 190 191 196 192 182 141 95 60 94 71 54 46 
42 141 193 177 167 169 172 174 168 159 180 194 196 177 147 132 
154 165 109 104 51 11 14 18 22 24 25 24 27 26 35 12 11 13 13 13 12 12 12 14 14 12 6 2 63 149 178 151 
118 105 62 46 69 157 175 62 16 32 39 22 47 93 89 167 
188 190 187 193 191 188 193 108 96 75 98 137 163 155 169 173 
156 71 113 179 171 167 166 165 159 143 164 200 204 180 149 161 
154 166 143 142 122 37 14 21 22 26 28 28 31 31 35 12 11 13 12 12 12 14 14 14 11 0 0 65 133 148 144 138 
117 57 15 125 126 148 62 84 118 104 111 59 34 67 103 174 
173 182 186 193 193 189 178 127 136 142 160 175 184 203 207 199 
200 178 73 101 172 158 151 155 169 135 138 187 200 196 188 184 
170 172 164 135 128 62 20 18 22 28 32 29 34 32 38 12 13 13 12 14 14 14 12 11 2 37 145 220 159 171 149 130 
86 0 88 131 118 91 60 163 195 198 183 128 82 53 77 140 
163 177 188 196 193 184 165 150 132 129 139 145 159 168 181 185 
193 187 172 87 114 159 145 130 140 139 128 174 205 195 187 189 
190 189 187 175 155 88 23 25 20 28 32 29 30 30 36 13 12 12 12 14 14 12 11 5 46 113 91 99 98 85 58 80 
69 31 125 108 87 39 149 168 166 165 178 179 166 103 34 58 
136 173 192 204 196 184 160 132 133 161 185 195 192 176 149 156 
174 175 167 150 78 129 145 133 104 140 136 157 194 191 187 193 
198 203 194 190 190 168 94 81 35 28 30 28 31 30 37 13 14 14 12 14 14 14 9 14 74 34 24 59 93 77 93 128 
98 70 108 46 54 53 154 148 162 182 195 219 225 211 146 41 
94 173 193 203 192 186 164 131 165 193 198 201 209 205 192 158 
133 154 148 139 141 118 131 125 106 118 136 151 189 193 187 185 
182 189 195 200 187 168 66 7 23 25 27 28 27 31 39 13 16 13 13 13 13 12 8 39 23 29 134 170 166 182 193 175 
128 102 81 38 47 46 109 117 165 197 214 238 234 229 229 118 
63 174 200 203 190 183 146 153 203 211 222 217 235 227 196 185 
136 122 130 119 126 122 127 118 111 107 105 153 177 166 156 174 
172 178 190 195 196 191 146 23 39 21 27 28 30 36 42 13 13 15 13 15 15 12 5 24 83 193 178 185 204 211 230 222 
171 105 23 50 48 15 82 90 175 184 108 100 128 90 162 208 
114 176 200 199 190 192 166 205 125 60 56 0 35 89 155 167 
169 150 128 121 125 118 137 133 138 119 122 153 176 189 181 171 
175 178 183 189 187 180 183 88 25 22 29 33 33 35 41 14 13 15 14 16 14 10 16 88 147 126 115 158 197 195 190 193 
168 25 0 74 41 0 31 26 43 0 0 0 0 63 61 159 
159 185 202 199 188 192 185 184 118 75 102 0 0 0 0 0 
47 53 88 131 136 134 137 133 161 145 132 173 171 186 194 195 
182 174 171 182 183 168 179 165 22 18 28 32 32 34 39 14 15 15 14 16 16 7 45 84 113 121 168 201 196 186 157 132 
42 0 7 98 53 13 2 0 0 0 0 77 207 234 221 201 
161 194 199 196 187 190 190 202 213 212 168 116 101 14 0 0 
19 148 176 165 156 143 138 136 164 153 142 163 159 154 164 177 
177 174 169 184 175 167 164 156 91 14 28 29 33 34 39 14 15 14 14 16 15 8 38 88 137 164 200 207 167 214 204 206 
74 0 22 96 98 150 133 0 0 31 151 176 198 209 198 167 
183 203 201 193 186 190 192 191 195 206 201 179 163 130 80 78 
141 164 194 197 176 151 145 137 160 160 157 152 176 183 183 189 
194 191 180 154 170 163 166 135 133 9 27 28 30 34 40 15 16 14 14 14 15 4 60 142 131 197 202 192 172 214 199 218 
125 16 77 104 133 192 129 99 178 212 221 215 208 199 187 163 
195 205 213 200 177 178 191 188 195 196 202 206 211 214 219 215 
207 193 191 192 186 164 156 142 163 169 160 184 202 196 185 187 
194 201 194 185 153 166 167 128 135 18 25 25 27 34 41 15 16 16 16 14 16 0 86 166 148 197 201 189 177 209 202 216 
162 66 113 97 140 160 168 205 212 207 206 204 201 198 198 116 
190 214 216 179 144 174 189 193 195 197 195 193 196 193 195 191 
194 193 190 187 180 169 154 142 162 172 151 161 169 173 192 196 
200 200 201 190 179 140 174 127 138 51 19 25 29 35 40 15 15 17 17 15 14 0 128 136 178 200 195 170 178 207 203 219 
180 171 101 84 125 177 191 192 197 197 200 201 203 204 189 0 
73 163 128 93 110 176 191 191 202 200 196 197 194 191 192 191 
192 193 189 180 166 166 148 142 170 162 132 123 141 171 177 187 
180 176 178 189 181 158 178 136 132 62 17 30 30 31 39 16 17 18 21 18 15 0 107 159 182 189 194 174 188 213 207 225 
142 95 107 88 127 167 180 190 194 196 203 205 204 217 146 0 
1 29 17 0 0 132 182 178 201 201 199 199 200 198 192 192 
192 192 184 180 163 151 131 142 167 163 133 122 126 118 112 140 
172 182 164 166 185 182 160 141 127 54 20 34 32 30 37 16 15 17 20 20 17 4 19 218 192 165 189 165 191 214 207 215 
110 116 151 78 111 158 175 189 196 200 201 203 207 229 67 0 
1 40 31 0 0 19 125 145 193 197 199 200 200 201 196 190 
185 186 174 169 157 139 120 123 164 169 139 130 121 70 100 143 
146 155 167 169 177 193 150 142 123 44 25 34 30 30 38 15 15 17 22 21 26 12 0 117 233 157 175 141 192 220 209 196 
63 195 138 78 80 149 169 192 195 198 201 203 205 227 10 0 
0 0 76 186 179 53 44 167 196 185 194 193 196 199 192 187 
179 176 172 161 148 121 91 115 160 175 135 133 124 85 89 141 
158 165 153 193 180 178 154 144 114 11 23 32 30 32 35 15 17 16 21 20 37 17 2 0 178 227 143 91 175 217 200 170 
85 253 134 79 54 129 161 185 193 198 199 207 200 220 122 100 
127 203 210 220 217 221 212 213 198 189 186 191 192 192 190 182 
173 168 166 158 145 107 73 111 152 171 164 144 137 136 117 137 
175 190 171 195 191 157 178 140 77 8 28 32 31 29 39 15 17 16 16 30 34 16 14 0 32 181 196 68 150 201 162 150 
171 238 39 36 40 91 144 172 188 196 199 205 199 207 219 231 
231 227 221 211 204 203 202 197 198 194 188 197 194 193 188 175 
170 160 158 148 138 98 74 133 153 157 164 122 123 132 152 161 
187 211 185 199 203 138 175 121 26 19 30 30 34 34 39 16 17 16 13 39 19 12 12 18 10 27 215 121 115 160 150 167 
201 177 0 9 14 36 113 163 184 193 199 203 201 216 190 154 
176 160 200 195 210 185 198 205 198 196 195 186 146 189 182 171 
162 160 153 144 125 87 97 159 158 165 150 146 144 152 164 194 
191 207 185 206 188 150 135 81 10 24 29 33 36 32 39 16 15 17 10 68 66 9 4 59 12 0 32 187 76 147 145 214 
137 98 0 59 11 9 74 158 180 191 200 208 209 151 86 74 
130 72 124 128 143 146 128 166 210 196 196 196 189 186 174 164 
158 157 157 145 112 97 116 160 145 182 160 151 152 186 203 190 
194 208 188 207 157 126 74 33 39 24 32 32 35 34 38 15 15 16 19 42 121 110 29 31 7 11 0 46 107 119 150 165 
89 55 18 91 30 4 51 151 176 185 200 199 126 30 31 17 
33 44 34 48 9 33 73 68 143 205 195 192 187 179 171 159 
154 155 154 140 116 98 115 149 144 205 141 158 176 202 207 191 
203 197 198 175 124 72 41 18 27 42 30 33 37 32 35 16 15 16 11 64 142 54 161 76 8 14 11 0 66 89 167 108 
54 105 52 56 31 2 44 141 172 185 189 176 0 24 28 49 
179 226 199 222 142 86 24 36 32 162 190 190 187 179 170 161 
158 158 151 138 117 108 126 137 169 170 145 174 198 199 197 196 
206 191 175 127 114 71 2 17 22 37 35 33 37 33 34 15 16 17 13 14 64 94 47 48 15 29 37 8 7 80 176 33 
23 103 156 25 17 7 33 130 171 176 185 146 0 2 0 43 
105 82 101 163 76 84 19 0 0 108 187 191 186 185 175 169 
166 163 157 139 122 105 124 115 187 168 190 192 217 184 191 211 
200 177 137 106 94 107 50 8 18 29 34 33 37 34 32 15 16 15 17 15 13 37 37 13 13 18 39 17 4 15 139 181 
255 197 135 17 15 7 33 127 173 179 198 219 177 133 168 152 
200 209 201 216 195 207 184 131 147 224 198 195 188 189 178 172 
172 166 163 147 119 89 119 120 182 181 192 185 213 158 201 204 
165 137 78 58 60 120 135 87 20 15 30 31 34 30 33 16 16 15 17 20 18 16 15 15 17 14 15 14 6 73 175 138 
90 96 112 37 15 15 35 120 172 188 199 202 165 32 47 69 
136 204 190 146 99 102 84 119 194 206 194 195 190 190 177 176 
173 167 157 151 112 101 97 185 201 158 183 194 211 194 209 147 
112 69 48 79 87 86 132 140 143 51 8 21 31 32 34 16 15 16 19 22 18 18 19 17 17 17 16 16 26 33 14 72 
51 159 47 39 7 12 42 102 163 188 191 183 192 146 56 32 
12 33 40 70 114 162 193 207 202 196 193 194 189 188 178 175 
174 163 157 145 110 97 31 193 167 191 171 176 201 222 129 107 
76 50 27 87 106 106 87 124 162 187 102 7 20 38 36 16 17 18 20 20 17 19 19 17 17 24 17 15 14 12 6 56 
68 128 72 42 1 3 41 102 156 174 180 171 185 178 167 152 
155 156 171 168 179 194 193 190 187 187 191 190 185 182 173 171 
174 160 161 125 76 48 0 139 235 183 203 163 213 137 71 93 
70 52 33 48 82 112 129 104 113 167 189 150 17 19 36 16 17 18 19 20 17 17 17 19 15 23 18 15 15 15 11 6 
0 67 66 75 51 0 16 71 133 166 173 175 185 183 190 202 
206 212 215 209 199 200 195 189 189 188 188 190 182 181 172 172 
167 162 142 80 47 10 0 23 83 128 119 181 148 104 76 120 
92 32 37 36 56 100 119 154 140 115 147 178 144 19 34 17 15 16 21 19 19 17 18 17 13 34 36 11 14 14 15 13 
7 15 190 87 144 0 7 16 99 159 166 177 191 197 199 200 
204 207 213 213 210 208 200 196 191 191 189 190 184 176 169 167 
163 151 88 12 20 9 11 81 84 102 113 144 123 122 66 113 
134 92 64 60 63 66 110 146 159 165 143 126 161 130 35 16 17 18 17 19 19 17 18 15 14 79 41 22 17 3 0 0 
6 0 0 70 27 0 10 6 57 141 159 178 193 199 200 203 
204 209 211 212 209 209 205 200 193 190 188 184 183 180 172 168 
135 37 11 7 15 13 9 4 0 0 122 96 95 58 54 107 
125 183 164 114 120 101 76 77 103 130 159 163 163 139 60 16 16 18 17 21 19 17 18 17 9 90 64 8 29 90 100 65 
27 7 6 24 45 6 11 7 6 46 122 166 193 198 199 204 
205 203 207 213 209 211 207 199 193 191 185 183 180 172 157 82 
10 2 13 12 16 16 12 0 141 61 89 47 49 22 57 133 
130 190 235 220 179 164 160 164 148 76 30 71 52 72 57 16 17 19 18 18 19 17 18 16 10 22 57 18 0 4 107 181 
110 11 11 8 21 7 13 10 8 0 5 96 178 198 191 197 
202 194 203 210 205 204 200 194 192 182 173 170 146 99 14 0 
9 14 14 14 17 16 13 0 128 95 12 20 14 15 32 183 
154 152 179 194 173 158 158 161 108 20 16 37 20 25 36 17 23 22 20 18 21 19 18 18 15 12 19 106 37 5 19 0 
0 0 11 11 24 11 11 11 11 12 3 3 94 154 173 182 
187 178 191 197 198 197 191 183 153 108 96 48 3 0 7 14 
14 14 13 14 19 16 13 0 122 35 5 12 8 50 19 133 
220 183 157 163 145 116 122 9 10 20 27 25 26 31 35 17 19 16 19 17 19 17 18 18 16 16 7 32 38 53 141 211 
184 46 13 13 12 12 13 11 13 13 11 6 0 26 64 71 
85 58 77 85 76 82 88 56 11 0 0 3 11 14 14 13 
15 15 15 13 21 14 13 4 77 9 10 16 4 75 17 47 
194 227 195 181 159 152 137 60 6 5 23 28 26 29 34 19 19 19 19 17 19 16 16 18 17 16 14 12 14 7 0 0 
0 24 14 13 12 11 11 11 11 13 13 12 12 11 6 3 
4 0 0 2 7 5 8 8 10 14 14 15 16 14 13 11 
15 15 14 14 24 11 12 6 60 11 10 14 4 76 32 49 
104 218 235 218 192 178 176 180 158 50 11 16 28 29 32 18 18 17 19 18 18 16 18 17 14 14 14 14 15 16 20 11 
12 23 14 15 11 11 12 12 10 12 9 11 12 13 15 16 
19 21 20 23 20 19 16 17 15 16 14 16 14 15 14 12 
15 13 12 13 30 11 11 5 69 22 6 14 10 49 84 5 
34 72 125 187 208 236 231 206 207 222 171 30 29 30 32 17 16 16 16 16 16 17 15 15 16 14 14 16 16 15 18 16 
16 18 16 13 11 11 12 12 12 12 11 11 12 14 13 14 
15 16 19 20 20 18 19 15 14 14 14 15 15 13 12 12 
15 14 11 20 46 12 1 6 132 76 0 6 8 0 159 0 
0 0 2 29 3 16 13 32 37 54 35 17 29 35 34 16 17 15 17 15 17 17 15 15 17 16 16 16 14 14 14 13 
13 13 11 8 14 8 11 11 11 13 11 13 12 14 13 15 
15 14 17 19 19 19 16 15 16 14 13 15 13 14 14 13 
15 11 10 47 40 19 0 114 180 202 21 27 5 0 59 125 
25 108 33 17 8 34 15 14 11 14 21 25 27 33 35 17 17 17 15 15 15 17 15 16 16 16 14 16 16 16 15 13 
14 12 6 19 50 15 11 11 13 11 13 13 13 12 14 13 
13 13 14 17 18 16 17 16 14 18 13 13 13 14 14 13 
13 12 31 94 28 31 42 158 89 167 36 130 206 185 152 202 
190 125 61 31 24 37 30 33 31 25 28 27 28 33 34 17 15 16 16 16 16 15 16 14 14 16 17 15 15 14 15 13 
8 0 0 64 32 0 8 11 11 13 13 13 11 12 14 14 
14 13 13 16 17 17 15 14 14 15 13 14 14 14 13 13 
9 12 81 129 16 37 110 220 222 220 182 136 201 233 206 132 
108 72 93 80 67 73 39 21 22 27 26 29 28 32 35 16 16 14 14 14 16 16 16 14 14 16 16 16 18 18 14 13 
7 83 140 228 161 19 6 12 11 11 13 11 13 13 12 12 
14 13 15 14 15 15 16 14 13 13 13 14 14 13 13 11 
8 43 123 128 1 26 224 100 149 161 172 0 0 0 0 6 
44 45 13 15 19 29 22 18 22 24 25 27 30 31 34 16 16 14 16 16 16 14 14 16 16 16 16 14 14 16 16 16 
0 11 158 179 255 23 4 11 12 11 13 13 13 13 13 12 
12 13 15 16 16 16 16 14 13 15 13 13 13 12 10 7 
38 97 137 114 5 98 144 80 148 82 152 56 0 4 7 13 
26 19 15 21 15 19 18 20 23 25 27 27 29 31 35 16 16 14 16 17 16 16 16 16 14 16 16 14 16 16 14 16 
3 133 153 173 64 0 23 11 12 11 13 13 13 13 13 12 
14 13 15 16 16 16 16 14 14 14 14 14 13 10 7 38 
97 129 131 89 49 3 89 102 109 0 10 71 29 26 89 102 
17 16 19 21 19 18 18 20 21 23 29 27 27 34 35 16 16 16 16 16 16 16 16 14 16 15 15 17 17 16 14 15 
4 0 56 17 188 12 7 11 11 11 13 13 13 13 13 12 
14 13 15 14 14 15 17 17 15 15 14 13 8 21 54 106 
136 131 120 113 87 17 72 49 34 118 63 113 157 111 76 13 
12 19 21 23 19 18 20 20 24 25 27 27 29 35 37 16 16 16 16 14 14 16 16 15 15 17 17 17 17 16 14 15 
13 8 11 39 139 0 9 12 11 13 13 13 13 13 13 12 
12 14 15 15 16 17 18 16 17 16 14 20 36 69 107 131 
147 133 135 148 110 0 15 9 9 15 14 14 6 0 3 13 
18 19 22 22 19 18 19 20 26 23 25 25 30 38 38 16 16 16 16 16 16 15 17 15 17 17 17 17 15 16 14 15 
14 12 9 8 0 3 11 12 11 11 13 13 13 12 12 12 
12 14 13 15 14 15 16 16 13 20 40 63 87 113 142 154 
150 134 148 159 136 26 1 16 19 19 19 15 13 14 17 16 
19 20 22 22 22 19 19 22 23 25 25 25 33 38 38 16 16 16 16 15 15 15 19 16 17 17 17 15 16 16 14 13 
12 11 11 11 11 12 12 12 12 11 11 13 13 13 14 12 
12 12 14 13 14 15 15 16 20 52 97 120 127 140 147 154 
149 151 152 158 148 88 3 13 15 18 16 17 15 15 17 18 
17 18 19 23 25 18 13 13 17 23 25 28 36 37 37 16 15 15 15 15 17 17 19 17 17 15 17 15 16 14 15 15 
14 11 12 12 12 12 12 12 12 12 11 13 11 13 13 12 
13 12 12 14 15 15 15 18 53 106 126 126 136 150 158 156 
156 155 158 154 137 90 6 11 14 10 10 11 15 14 15 13 
14 13 16 14 14 9 15 25 1 0 0 3 20 29 36 17 17 15 17 17 17 15 15 17 15 15 17 16 16 13 14 12 
13 12 10 10 12 12 12 12 12 12 11 11 11 11 13 13 
12 12 12 12 15 13 15 34 83 114 129 142 154 164 168 164 
160 160 157 154 142 94 2 7 48 11 65 18 0 0 0 0 
0 0 0 0 22 73 120 166 196 194 161 120 74 5 36 17 18 18 18 17 15 17 15 17 17 15 16 14 13 12 5 0 
0 0 6 10 10 12 10 10 10 12 12 12 12 11 13 13 
12 14 12 12 13 12 24 54 102 125 144 154 161 170 168 169 
158 153 161 161 164 144 1 0 3 9 46 128 69 212 211 201 
209 215 214 208 194 195 190 196 209 218 229 239 249 251 157 18 18 16 16 16 17 17 17 17 17 16 12 1 0 0 0 50 
125 45 0 5 10 9 4 8 7 12 10 12 12 11 11 11 
12 14 13 14 10 17 53 94 121 141 148 155 164 170 168 166 
157 161 171 174 165 185 27 69 24 0 0 32 18 132 219 215 
216 217 217 215 208 210 210 208 208 207 209 208 210 217 211 18 16 16 18 16 17 14 11 5 0 0 0 0 95 200 255 255 
244 139 50 0 10 0 12 68 0 7 10 10 12 12 11 13 
12 13 12 11 10 51 98 118 138 151 156 161 173 173 168 167 
159 163 171 181 167 193 118 160 183 139 13 87 31 49 175 202 
210 209 208 208 205 204 204 205 206 205 206 209 207 210 211 16 15 18 11 0 0 0 0 2 51 127 219 255 255 239 226 222 
238 255 163 0 8 0 130 123 35 4 10 10 10 12 11 12 
13 12 10 11 39 88 127 140 151 163 166 172 174 175 172 165 
163 167 177 188 173 188 124 169 118 163 132 148 76 63 171 180 
211 210 207 206 202 203 202 204 205 204 205 206 207 210 210 16 15 4 0 40 182 253 255 255 255 252 237 226 221 217 218 221 
244 143 0 0 3 6 255 178 17 0 7 7 9 10 11 11 
11 11 23 60 104 131 142 149 160 167 169 167 172 175 174 169 
173 178 190 196 184 195 145 194 142 179 208 139 118 91 136 165 
153 210 208 203 201 200 201 202 204 204 205 206 207 209 210 16 0 0 153 255 252 237 230 227 225 224 222 223 222 221 220 231 
215 40 12 9 0 77 255 244 0 13 55 0 0 2 0 3 
16 36 73 123 139 144 154 162 167 173 172 172 173 179 177 173 
176 189 194 196 194 209 149 172 147 183 192 171 160 53 64 155 
180 187 210 205 201 200 202 201 202 204 207 208 208 209 209 38 136 255 255 237 227 227 225 224 225 222 223 223 220 219 222 246 
117 68 99 17 0 134 224 150 96 53 70 3 48 125 74 57 
78 106 115 134 154 156 161 164 166 175 173 174 182 187 182 185 
190 192 198 201 195 201 170 159 149 187 187 170 172 105 88 154 
205 209 188 206 200 202 200 203 204 205 207 206 208 207 210 212 255 237 229 226 226 227 226 223 224 222 221 222 220 221 228 236 
41 125 132 22 53 190 222 154 105 43 149 105 173 198 176 166 
152 153 149 147 167 168 171 170 173 176 175 184 188 190 186 188 
193 196 200 200 196 199 179 172 187 190 122 157 206 190 129 138 
195 214 172 206 204 201 199 200 201 205 206 207 206 210 208 228 228 226 228 228 226 227 226 225 223 222 223 222 220 221 233 169 
61 70 110 29 83 253 242 204 185 72 151 155 193 192 191 183 
175 164 168 169 183 189 189 185 179 179 175 184 187 189 190 192 
198 198 201 200 192 191 165 160 172 200 127 164 179 183 145 121 
224 223 189 152 206 201 197 200 203 201 204 205 206 207 207 229 227 228 228 226 226 227 226 224 225 224 223 222 221 220 236 152 
84 13 126 56 67 230 229 185 140 60 221 164 186 184 197 193 
189 181 180 179 181 192 197 190 188 185 186 189 190 193 196 196 
199 198 197 198 197 174 180 161 208 207 125 168 166 185 125 92 
193 223 194 171 173 200 197 198 197 200 200 203 204 205 205 229 229 227 227 227 228 227 226 224 225 222 221 220 219 223 223 146 
59 19 92 89 31 153 224 235 143 55 210 154 182 184 198 198 
195 193 191 189 191 196 197 196 193 194 190 195 193 196 194 195 
197 196 196 200 199 179 169 157 214 194 117 175 213 185 109 98 
102 216 195 166 155 200 198 195 195 196 200 201 202 199 204 229 229 227 229 229 229 226 226 224 223 222 222 221 220 226 196 222 
50 13 88 92 76 211 196 233 203 118 150 142 165 195 197 194 
196 195 194 194 197 193 196 196 196 196 196 196 197 197 197 197 
196 196 199 200 200 180 151 157 217 207 131 174 199 146 137 98 
99 192 190 143 191 139 205 196 195 195 196 197 199 198 201 229 229 229 229 229 228 226 225 224 223 222 222 221 219 228 179 228 
17 17 50 118 141 174 192 227 215 148 97 137 132 196 195 194 
196 196 194 194 196 196 196 195 197 196 198 200 198 196 198 197 
197 199 195 197 202 191 182 147 223 200 134 150 208 168 142 142 
92 188 199 184 191 113 199 202 199 194 194 198 195 197 198 229 229 227 229 228 226 227 227 226 223 225 222 219 222 230 148 255 
63 16 79 141 139 176 143 235 213 179 116 130 175 190 199 195 
195 195 198 196 197 195 196 196 197 199 197 199 197 197 199 200 
198 200 200 200 205 174 167 155 220 178 146 182 223 188 139 130 
102 171 159 211 205 145 201 195 200 193 192 194 192 192 195 229 229 229 228 228 225 226 226 225 224 221 221 221 224 205 0 207 
99 25 78 163 145 218 166 182 203 202 98 138 181 170 202 196 
196 196 203 198 197 198 200 199 200 200 200 200 200 198 200 201 
201 199 201 199 205 184 176 158 225 174 147 175 211 187 132 170 
104 146 163 161 179 160 223 157 199 197 190 189 190 190 192 229 228 226 227 227 223 222 223 221 222 219 220 222 205 241 41 182 
94 25 69 159 153 233 148 201 200 210 125 124 151 185 205 200 
201 200 197 197 194 194 197 202 201 203 197 199 199 199 199 202 
202 200 201 199 204 175 184 145 222 182 161 178 225 212 134 194 
115 134 120 172 195 177 223 191 171 199 195 192 191 189 189 228 227 226 226 225 223 221 220 219 219 218 218 217 191 202 126 163 
130 70 76 143 155 183 201 193 190 179 141 133 162 189 202 200 
200 199 200 197 198 199 200 200 201 201 200 201 201 202 202 203 
203 200 201 201 200 183 193 164 203 180 157 189 207 188 154 171 
125 145 126 144 188 195 199 172 159 189 194 192 191 190 187 