P2
# Created by IrfanView
80 73
255
127 131 136 129 134 133 131 126 130 129 125 121 119 120 115 111 107 
117 112 116 114 116 121 118 123 124 125 118 121 118 112 119 120 
120 129 130 127 122 127 128 121 122 124 123 117 111 116 120 118 
117 118 126 127 124 123 130 131 124 127 131 125 123 122 118 119 
120 126 126 129 123 122 120 124 121 124 124 133 132 134 137 132 137 145 136 146 140 137 132 125 127 119 126 115 121 120 119 109 
125 123 119 117 126 121 113 121 132 131 118 127 119 119 124 124 
132 127 126 124 131 139 136 136 141 136 127 123 122 134 121 120 
117 124 128 123 123 125 136 135 133 125 132 121 127 130 121 120 
122 124 130 122 128 119 120 126 122 124 132 130 135 131 128 133 135 138 142 139 139 137 124 122 124 124 118 120 131 129 125 119 
122 122 115 113 120 121 114 121 130 128 118 125 119 123 121 121 
125 126 131 136 143 131 142 144 149 147 133 129 135 130 123 126 
126 114 123 121 127 125 140 143 135 130 135 123 123 123 122 120 
131 130 132 130 125 123 124 130 122 127 134 133 129 126 130 140 141 139 140 127 141 147 144 137 136 134 135 129 132 127 126 121 
128 125 124 120 130 125 122 130 144 125 123 133 125 132 130 132 
131 127 128 138 133 127 135 134 144 145 143 142 147 129 129 125 
128 127 128 129 131 135 145 142 138 136 137 130 126 132 126 129 
134 132 124 131 124 125 130 131 121 131 126 133 135 126 120 141 151 142 139 139 139 137 144 135 146 139 139 136 130 123 133 126 
133 128 128 125 125 136 135 134 124 125 121 139 137 130 132 137 
130 131 135 141 129 130 144 141 135 145 140 142 140 141 138 132 
132 130 136 133 141 144 144 142 135 130 135 126 133 127 126 127 
135 131 126 128 129 132 130 135 118 130 128 133 131 136 126 143 137 141 137 137 139 136 136 145 141 144 147 135 131 133 136 132 
134 131 123 119 133 131 130 132 129 138 126 144 142 135 134 135 
141 142 143 147 144 146 144 147 144 149 146 145 136 134 136 130 
132 130 143 146 140 133 142 141 141 140 135 123 131 125 123 127 
129 130 126 125 131 134 126 140 125 134 128 140 135 130 127 143 147 142 134 143 141 146 141 140 130 128 134 134 141 142 145 133 
122 140 139 130 136 133 124 131 133 140 136 149 147 140 136 137 
151 144 153 147 114 105 92 93 102 114 139 140 147 150 141 135 
133 131 128 131 138 139 130 132 136 134 135 128 129 123 124 130 
120 139 128 127 120 124 122 136 133 128 132 135 142 131 127 147 135 137 134 145 139 135 136 137 140 137 146 134 143 134 142 138 
133 129 125 126 123 128 132 135 132 143 141 146 145 147 159 155 
129 73 40 15 15 24 26 28 27 17 16 36 61 95 124 141 
139 133 139 135 141 143 134 145 143 144 135 132 130 133 128 123 
129 140 137 126 137 129 131 140 136 132 128 135 143 135 131 141 151 147 142 142 143 130 143 143 139 133 147 141 150 142 145 145 
136 129 133 131 136 128 130 137 133 154 148 144 144 154 117 32 
15 24 46 20 26 20 23 23 29 45 43 32 36 22 30 66 
129 140 132 138 148 140 143 145 144 133 148 130 126 129 135 126 
122 134 127 130 133 133 131 135 132 140 139 135 152 131 138 148 149 150 139 151 143 144 143 140 145 137 159 147 162 146 148 140 
157 138 143 144 145 129 136 149 137 147 151 147 128 75 8 4 
24 78 66 27 23 16 11 11 11 12 11 30 48 52 32 25 
8 83 136 148 143 133 145 144 137 133 129 122 127 131 139 130 
129 134 141 137 137 137 140 142 135 130 140 143 146 141 136 154 149 148 142 150 142 141 139 139 144 147 154 146 150 149 146 142 
143 137 147 151 144 140 145 153 151 146 147 127 45 6 25 46 
42 96 50 31 30 21 25 20 22 21 15 9 9 26 52 46 
25 6 39 140 160 146 148 151 153 143 140 133 145 131 138 133 
134 140 143 140 140 147 148 155 143 134 143 140 144 144 141 159 161 152 142 142 152 154 147 157 151 153 159 146 144 143 136 142 
142 149 158 144 150 147 155 148 162 149 130 50 27 46 56 39 
60 103 47 42 48 41 33 23 24 22 24 19 13 9 10 27 
38 18 5 16 133 150 143 147 144 149 150 143 143 137 131 135 
134 141 153 147 137 152 155 151 147 145 146 141 151 136 141 158 160 151 157 164 155 145 151 155 157 153 155 147 155 149 138 139 
141 151 146 141 152 141 150 158 163 141 43 17 39 46 58 44 
77 70 41 31 36 31 21 23 28 28 25 21 17 19 16 10 
18 21 18 5 32 153 156 150 155 161 149 150 135 132 140 138 
136 133 145 149 148 151 148 149 144 157 144 146 152 145 148 155 159 158 155 159 143 151 155 151 153 152 163 157 153 150 147 138 
150 154 157 153 156 155 157 160 170 79 6 25 26 40 61 89 
115 121 87 69 57 41 24 9 15 24 28 20 13 16 15 14 
14 17 32 15 2 48 152 164 160 151 146 149 132 134 133 141 
140 140 140 142 144 144 144 154 139 159 155 166 149 146 158 158 167 158 150 155 155 156 150 158 161 164 165 155 157 147 155 137 
153 149 149 144 159 163 161 172 134 25 20 59 97 138 159 168 
165 174 154 150 138 129 114 76 38 22 19 24 22 16 19 18 
16 19 17 20 11 2 89 171 143 151 148 158 155 148 155 145 
146 140 148 147 146 154 150 153 148 160 164 156 142 146 162 155 154 151 150 153 151 153 154 158 163 167 161 155 154 149 151 144 
147 157 156 160 171 163 167 161 53 12 89 132 148 163 167 183 
188 175 175 157 144 125 122 109 76 56 48 41 20 19 22 17 
17 18 20 13 16 9 5 136 170 152 154 162 165 148 156 156 
144 143 158 152 151 150 150 160 158 156 160 153 152 143 153 163 160 167 159 158 148 166 161 167 163 161 159 158 153 149 153 152 
159 156 168 169 176 166 160 114 20 50 114 133 175 200 202 205 
187 208 197 189 182 169 157 125 96 79 63 48 26 22 26 14 
16 15 18 24 18 18 5 34 161 160 170 152 156 152 158 156 
154 157 152 160 155 158 161 162 154 152 146 145 159 147 145 166 163 163 163 165 167 165 149 169 164 162 159 155 157 160 159 153 
147 154 160 169 168 171 139 53 18 89 154 184 202 203 202 205 
200 204 204 194 187 176 164 139 119 89 72 57 36 29 21 16 
13 15 21 24 21 17 21 4 122 170 167 158 161 160 151 154 
163 166 156 151 161 156 158 158 152 158 156 163 159 157 153 176 184 178 165 161 165 167 161 170 168 166 165 159 164 173 168 152 
160 168 170 174 172 167 90 0 23 117 154 189 195 194 198 198 
203 200 200 196 193 181 171 152 131 98 76 59 43 36 28 21 
16 11 11 18 19 18 17 5 46 176 172 153 156 155 151 151 
154 165 163 162 167 164 168 155 154 157 160 166 173 165 163 177 175 179 171 171 164 169 167 173 170 160 169 156 174 176 168 161 
154 170 176 186 180 142 32 1 61 127 149 191 195 196 205 199 
196 204 197 194 191 185 174 156 131 103 74 63 52 39 22 21 
35 22 15 15 11 16 18 11 1 144 167 168 150 144 153 162 
166 163 156 170 166 167 171 157 152 147 157 162 171 171 164 182 185 183 180 178 178 191 177 168 168 161 173 157 173 165 160 147 
152 166 183 187 172 110 66 0 59 126 151 175 198 190 189 183 
185 202 193 188 191 176 153 135 125 105 92 77 57 44 27 24 
25 18 19 16 15 10 14 12 4 93 173 147 141 144 153 163 
144 140 148 149 174 142 157 154 158 156 155 152 162 165 168 176 179 181 189 184 188 183 175 171 172 154 161 167 172 169 168 155 
156 167 180 183 105 98 31 4 70 132 157 190 180 183 180 180 
182 186 186 187 174 168 140 137 126 116 102 93 70 63 49 27 
17 13 16 18 13 12 12 9 6 41 144 117 120 145 140 150 
119 136 146 152 161 137 160 154 158 159 159 158 160 150 161 178 189 194 180 165 183 194 171 182 168 165 158 168 180 167 154 150 
165 177 193 145 102 46 30 11 100 126 163 183 192 181 187 196 
178 185 188 185 184 169 147 139 138 123 124 111 96 91 74 38 
19 23 16 18 16 14 13 10 8 7 119 101 111 138 122 127 
123 126 143 157 136 143 157 131 159 150 148 161 168 160 159 179 190 160 151 139 165 188 180 183 180 160 158 161 177 171 162 177 
185 175 189 107 87 47 26 19 117 137 149 160 170 185 187 193 
188 185 192 186 185 174 168 148 156 143 135 130 121 106 77 45 
22 32 22 15 17 17 12 12 11 2 104 111 87 106 107 104 
103 117 150 155 122 147 146 115 156 151 158 166 167 165 161 160 156 130 141 139 147 162 189 185 179 181 180 174 186 186 178 180 
187 189 181 99 50 48 15 16 121 156 175 187 180 181 187 187 
190 189 188 193 183 178 174 164 165 145 138 134 122 105 74 41 
24 16 9 15 9 18 14 12 12 4 87 92 75 95 91 77 
84 115 141 125 128 137 128 113 161 163 168 164 174 161 154 136 136 139 130 117 112 131 170 141 181 184 195 179 182 175 176 181 
196 194 155 95 53 49 12 17 122 148 169 177 166 182 186 182 
190 203 185 162 125 125 137 144 151 151 128 119 105 89 62 35 
17 15 14 12 7 14 17 13 11 3 73 91 61 83 94 99 
98 116 107 94 128 123 103 98 152 162 162 158 164 160 156 116 115 131 116 103 121 117 89 110 124 146 194 176 187 174 176 193 
181 189 126 80 65 28 11 8 124 157 149 122 105 113 182 182 
183 185 125 76 65 78 88 85 93 105 99 91 80 72 59 35 
14 14 13 12 10 13 22 14 12 5 67 70 43 71 93 107 
116 105 106 94 116 128 89 107 126 121 160 156 161 159 161 97 94 106 100 92 105 86 94 116 100 95 147 176 171 171 174 189 
172 164 99 71 62 48 26 13 76 77 70 83 86 59 97 182 
166 143 70 32 36 83 127 117 60 33 34 41 42 57 57 34 
15 14 16 11 11 12 16 14 12 13 40 55 63 74 71 55 
94 92 93 98 106 138 84 105 118 113 164 157 172 173 155 88 95 95 79 71 79 79 82 122 107 102 110 185 183 187 178 188 
161 153 88 66 50 60 32 9 40 11 76 70 33 65 64 158 
184 116 45 20 80 103 42 15 40 48 11 3 25 76 72 51 
27 21 26 21 10 8 13 13 13 11 23 77 56 67 64 65 
72 97 97 96 93 67 59 103 118 109 155 160 166 169 160 83 103 95 82 95 72 89 80 134 110 87 110 188 186 168 152 189 
156 145 113 49 33 46 18 9 103 30 92 101 0 16 91 146 
205 96 43 78 125 187 102 4 30 47 50 87 129 128 89 55 
31 16 28 20 11 12 13 17 12 17 12 74 53 57 41 58 
76 94 75 85 116 65 46 62 87 106 152 168 170 163 161 90 98 107 59 62 76 82 77 121 81 76 188 166 167 106 66 114 
134 152 122 30 43 51 12 13 142 105 153 173 130 106 128 164 
206 98 58 90 144 166 171 147 124 100 117 155 164 126 95 57 
29 13 21 18 14 14 10 16 16 13 10 78 53 64 59 65 
51 71 68 62 67 72 70 85 65 114 141 173 168 176 161 88 106 112 42 66 89 72 91 101 89 73 107 148 115 74 85 62 
97 139 79 52 40 42 5 25 167 160 144 113 82 128 163 165 
195 105 80 100 146 134 107 101 101 128 156 163 156 123 89 47 
19 12 12 12 10 15 12 17 19 17 5 63 49 51 52 62 
72 88 73 66 72 67 68 88 75 102 127 163 176 162 158 81 63 81 57 72 72 64 57 66 69 63 49 103 92 62 107 61 
47 102 82 64 25 44 2 22 177 185 191 195 186 183 162 165 
186 117 104 129 179 201 196 212 202 192 181 153 134 109 81 41 
18 10 10 13 11 11 8 15 17 19 3 48 43 46 65 61 
71 95 93 84 69 67 70 67 72 92 96 150 160 145 154 74 76 52 76 71 72 68 43 63 73 39 54 51 71 59 91 47 
40 70 68 67 23 26 3 15 148 153 162 178 179 180 160 179 
185 124 109 134 175 193 178 197 182 187 169 140 118 98 68 35 
15 13 9 11 13 13 10 12 17 22 4 45 62 68 58 63 
68 77 56 56 64 55 46 53 49 65 95 143 167 157 143 86 69 53 56 77 78 62 52 53 61 51 54 56 69 62 87 41 
51 58 60 56 37 41 15 5 132 166 171 181 182 165 170 193 
185 115 108 127 169 173 180 190 174 176 154 124 100 82 57 27 
16 18 11 16 15 20 14 12 16 17 7 43 63 71 77 67 
66 67 63 63 62 62 46 61 54 63 71 86 116 127 135 84 75 69 56 78 38 52 48 48 47 48 55 49 48 53 62 39 
43 39 45 29 35 50 29 1 108 177 178 171 180 165 152 187 
168 124 108 111 160 164 167 183 167 166 140 111 89 73 48 25 
12 14 13 16 12 11 12 10 15 18 14 42 71 83 82 122 
122 131 119 114 116 125 126 119 119 126 117 122 124 131 126 87 81 84 65 78 61 63 44 43 50 51 63 46 47 44 34 33 
29 27 33 34 27 45 17 2 84 155 176 176 186 145 155 202 
169 115 111 95 169 163 166 166 153 145 123 92 80 67 43 20 
15 15 20 17 14 16 10 8 15 12 20 23 36 41 40 46 
70 79 84 91 87 96 88 116 124 120 116 121 130 134 128 63 84 76 76 76 70 61 57 61 63 71 58 50 53 49 43 30 
31 24 17 33 43 43 13 2 65 121 165 167 165 127 161 200 
158 104 110 77 167 171 170 165 149 128 110 85 71 55 35 23 
17 18 17 16 13 16 8 9 11 13 21 18 31 25 33 31 
37 50 49 49 49 46 44 43 48 64 77 98 96 84 94 57 48 60 80 77 73 59 67 67 52 54 50 44 53 55 44 24 
27 18 27 23 22 38 16 3 35 102 136 140 159 167 81 122 
56 13 20 16 152 190 170 150 129 112 93 77 60 52 35 27 
19 16 11 10 10 13 10 9 15 10 16 17 22 27 40 40 
40 38 42 51 56 50 47 51 52 43 59 82 78 76 68 62 49 47 49 80 84 50 63 56 51 55 62 51 50 50 30 32 
39 29 34 29 15 29 18 13 23 86 114 113 162 193 195 70 
9 6 23 57 145 161 141 129 121 101 88 75 64 51 32 29 
18 16 14 13 11 11 10 18 16 17 16 19 16 18 22 30 
42 36 33 37 41 39 34 40 55 46 70 49 50 57 60 58 54 52 45 72 70 41 53 57 50 47 67 47 43 48 41 33 
39 26 18 25 16 29 15 14 9 92 103 103 136 172 197 172 
75 70 92 120 122 103 98 118 117 104 86 77 72 55 36 22 
19 14 16 14 11 10 12 19 18 18 15 26 38 45 49 46 
50 45 55 56 45 43 44 49 46 43 36 40 38 36 52 60 59 46 46 61 54 54 50 53 51 56 60 46 42 39 44 24 
39 37 20 21 18 48 41 15 4 72 120 120 94 70 114 147 
129 85 84 77 55 46 105 124 119 107 94 77 68 53 33 25 
15 12 14 11 9 12 12 13 11 16 20 25 30 39 29 44 
45 43 46 48 48 37 38 36 34 38 37 37 50 59 63 61 65 65 60 63 55 56 47 61 41 38 43 50 41 32 31 31 
37 36 33 21 24 47 27 20 8 40 121 135 129 122 132 116 
93 68 51 42 63 121 134 138 127 110 89 72 62 47 27 21 
21 13 17 18 12 11 10 9 12 14 19 18 22 45 40 53 
44 46 43 48 51 43 45 40 43 46 55 55 57 68 77 55 68 50 44 40 33 45 36 46 45 49 38 38 44 34 42 46 
50 31 44 28 36 44 13 21 10 9 89 127 145 187 177 151 
144 133 106 88 118 120 125 125 109 98 78 65 56 43 28 22 
19 15 13 18 11 18 15 11 10 17 15 20 20 44 39 41 
47 50 49 46 42 42 43 44 48 40 49 52 56 63 64 50 40 54 47 41 54 42 35 37 38 37 44 48 51 51 56 47 
60 40 43 35 28 37 16 26 13 4 25 87 117 149 148 108 
49 51 65 87 91 91 101 108 96 85 66 56 48 38 31 20 
14 18 19 14 17 15 9 8 9 15 14 18 36 41 52 42 
42 46 47 46 38 39 42 42 47 43 49 46 57 55 56 44 46 38 42 38 44 50 55 46 53 44 55 46 46 44 46 42 
63 41 36 40 21 23 15 22 22 14 6 22 85 132 161 192 
183 174 143 114 105 102 103 100 79 62 53 46 45 40 28 21 
17 18 22 13 9 8 10 11 10 12 14 20 36 56 48 39 
36 42 42 48 50 49 51 33 36 43 44 44 44 42 38 39 42 47 45 52 48 40 43 56 75 58 74 66 75 75 76 76 
71 58 59 52 30 22 23 21 24 21 9 2 12 89 162 197 
201 201 159 121 110 107 94 81 60 48 46 45 41 32 23 17 
19 19 18 13 10 9 13 10 9 13 14 21 28 53 60 50 
37 45 50 50 68 60 61 45 43 44 55 49 47 48 51 36 40 42 36 35 48 40 43 37 46 40 49 38 49 45 41 35 
57 53 51 31 29 34 39 39 38 34 12 12 4 11 98 174 
180 167 131 117 100 79 56 50 42 37 44 49 36 24 16 16 
19 18 18 14 17 11 12 13 9 13 17 22 25 36 56 48 
54 54 81 76 59 64 34 45 43 47 42 56 63 62 59 46 47 50 42 33 45 40 38 49 51 38 55 50 53 56 64 54 
66 68 43 29 41 32 26 28 37 23 13 13 11 2 21 91 
122 115 98 87 66 44 37 44 42 47 42 25 20 19 19 19 
18 15 18 17 16 17 17 11 10 12 18 21 21 31 41 49 
65 46 52 67 52 64 46 50 60 58 55 59 56 55 41 52 49 43 32 28 40 39 31 45 54 41 60 59 65 66 85 97 
93 82 29 31 39 43 18 19 18 18 10 10 9 9 2 9 
42 49 39 40 43 40 41 43 38 27 16 15 23 30 33 18 
18 21 22 18 19 20 16 12 11 12 15 19 16 31 43 47 
33 28 42 41 40 51 41 47 54 40 46 51 36 51 45 46 39 43 35 38 36 50 47 51 79 45 61 51 62 68 84 86 
89 85 41 29 21 36 16 25 31 18 17 9 9 10 8 7 
2 12 13 16 20 23 20 15 8 13 22 28 30 32 29 22 
26 24 19 18 19 14 13 10 12 11 13 15 11 24 39 41 
32 33 37 41 48 35 31 34 42 36 34 43 38 42 36 58 69 69 63 69 71 71 70 74 76 71 88 98 104 85 104 85 
91 79 55 39 22 22 19 26 23 18 19 10 11 11 7 8 
2 46 45 23 17 17 13 18 21 24 28 37 33 33 43 48 
45 30 18 15 16 12 13 11 11 19 20 14 10 13 25 35 
37 40 49 52 57 65 62 39 36 37 40 41 52 23 29 50 48 43 42 51 59 55 54 65 69 78 95 93 92 105 101 74 
88 76 62 34 21 24 17 23 19 24 18 14 11 16 12 10 
2 59 95 71 57 48 30 27 33 39 42 50 48 57 62 57 
51 29 22 17 18 11 13 14 12 22 26 18 16 29 50 43 
57 44 37 53 53 66 52 49 45 33 44 33 22 28 31 51 65 64 67 73 83 80 88 91 88 82 75 87 93 84 90 82 
93 81 64 54 15 27 38 44 24 37 12 9 16 14 12 11 
2 56 127 99 79 68 46 39 43 46 48 54 69 73 78 60 
55 35 26 19 26 10 13 15 9 21 27 21 14 36 40 48 
27 36 38 47 35 35 27 44 45 39 52 61 56 40 39 66 82 81 78 79 87 84 76 74 90 83 72 95 90 88 90 83 
84 72 61 67 14 27 20 16 18 22 15 17 17 13 11 8 
4 28 141 127 109 90 72 70 61 61 66 65 73 85 88 77 
67 42 31 22 21 18 13 14 11 22 23 20 10 19 32 41 
52 66 75 117 101 77 75 95 68 58 59 55 60 76 65 66 79 69 71 77 75 60 77 76 85 77 67 75 76 87 77 68 
81 58 45 50 14 37 31 34 16 22 16 15 15 20 16 12 
7 7 127 130 121 116 104 83 76 84 80 79 95 94 104 88 
88 60 30 29 22 17 9 16 12 33 26 20 11 15 30 50 
49 58 78 74 68 63 89 71 64 89 104 92 57 79 80 78 69 32 52 44 76 41 29 26 86 96 67 85 70 84 91 77 
94 56 46 58 6 30 16 20 20 18 18 19 17 16 10 10 
7 26 102 126 127 126 110 102 96 93 96 96 111 106 119 100 
99 75 31 33 31 19 18 22 12 43 25 13 14 14 14 19 
11 14 20 22 21 29 53 64 95 95 72 64 79 106 97 77 95 70 81 20 39 35 70 32 15 45 52 68 68 26 65 32 
12 49 22 15 6 22 14 13 16 14 16 13 15 15 13 11 
33 81 94 110 129 128 118 118 112 108 116 120 127 113 126 113 
97 78 49 25 28 23 22 30 16 51 37 10 12 11 8 16 
8 12 18 32 29 8 36 58 58 19 0 27 84 115 116 86 75 70 54 40 63 54 92 46 6 15 18 41 13 8 40 32 
5 19 37 16 7 23 13 15 14 14 13 20 10 6 23 66 
103 127 113 138 140 136 125 128 127 118 132 123 121 126 134 126 
110 92 59 26 26 40 42 42 24 45 35 9 14 13 10 13 
12 18 28 40 38 20 42 29 16 15 11 8 45 81 112 80 59 46 37 64 58 46 80 57 9 30 19 18 40 27 26 31 
11 7 29 10 9 26 22 16 21 13 16 13 7 58 93 107 
135 168 148 146 155 140 130 132 135 136 142 154 147 139 139 140 
131 105 64 41 32 29 29 59 24 40 30 12 10 11 16 9 
17 18 9 12 12 22 21 11 29 38 18 40 51 89 106 68 56 40 58 53 67 38 50 63 6 20 17 14 7 12 20 50 
20 9 12 11 7 28 7 21 22 15 10 29 89 104 103 133 
160 157 179 162 163 160 149 147 152 157 161 154 165 152 152 154 
139 124 82 67 21 54 25 77 25 49 29 15 16 15 18 13 
17 35 54 47 45 51 80 82 90 86 92 95 107 124 122 58 49 30 27 54 66 62 56 33 6 13 46 19 10 7 35 45 
14 19 14 16 11 29 12 35 15 7 38 101 126 138 151 169 
158 165 182 165 170 169 162 165 171 173 180 171 163 159 147 144 
130 107 68 40 32 38 46 74 29 48 23 17 24 17 14 15 
17 14 18 47 71 73 116 113 121 129 135 127 120 92 103 63 62 58 66 85 76 83 60 24 13 19 55 34 4 8 36 33 
16 14 14 21 14 20 15 15 13 24 99 130 143 158 175 180 
186 169 193 181 176 173 173 175 180 172 183 179 174 160 160 146 
121 100 48 36 42 54 69 73 33 40 18 12 23 23 17 16 
17 15 35 33 30 38 57 82 154 125 122 100 76 77 93 73 61 102 71 109 78 66 62 13 19 26 57 33 3 8 32 26 
28 24 14 17 16 28 12 17 29 32 121 160 170 175 180 182 
191 180 189 199 187 189 180 179 172 178 188 176 169 169 152 139 
137 121 48 56 53 38 51 65 30 32 12 14 22 26 11 20 
24 19 18 25 34 24 31 72 119 109 112 112 105 80 95 60 41 75 60 96 66 42 47 17 34 24 55 51 13 3 34 35 
30 19 16 18 21 24 10 49 49 76 140 166 175 168 187 190 
196 197 199 197 191 180 174 180 186 186 185 183 169 169 166 141 
139 123 76 62 80 46 49 64 28 22 7 17 17 28 15 35 
24 20 19 18 26 30 38 44 103 85 108 123 120 122 112 82 74 104 67 75 64 31 60 49 47 28 51 50 26 32 43 47 
41 13 15 14 12 22 39 36 54 109 160 179 191 176 185 203 
203 202 185 183 190 181 184 190 182 188 189 181 176 173 173 139 
134 102 89 44 71 37 46 66 32 19 11 16 19 16 23 44 
24 23 19 13 24 25 42 60 70 71 74 62 80 79 82 88 69 110 79 77 76 48 53 48 30 38 60 51 34 39 40 40 
19 8 9 17 11 43 55 54 79 127 166 185 192 193 197 191 
195 195 188 190 192 191 178 193 195 192 194 179 174 172 168 148 
138 97 55 30 59 32 52 63 20 16 13 11 12 26 50 64 
52 49 53 28 22 17 26 61 40 62 84 72 107 76 111 105 92 101 72 87 83 61 38 65 52 60 64 66 35 56 20 13 
8 10 15 9 21 64 77 87 74 139 177 182 197 193 190 198 
198 196 203 191 181 185 181 194 199 191 178 180 170 163 164 146 
132 76 68 47 78 45 46 72 17 4 11 15 34 69 88 72 
50 47 42 26 13 9 18 33 44 69 78 97 108 100 106 117 122 110 100 95 112 84 60 52 60 61 74 58 37 27 4 11 
15 15 15 7 46 82 103 100 76 168 181 190 185 196 207 206 
199 198 195 182 195 186 184 191 195 197 189 174 169 158 162 144 
136 91 77 86 66 45 48 54 12 9 39 57 48 46 53 58 
67 57 52 43 15 12 12 8 27 44 40 44 44 81 87 88 128 132 101 88 83 81 76 48 45 55 66 55 20 8 10 15 
21 16 11 13 62 108 100 122 163 183 197 193 195 191 200 197 
193 197 198 200 204 190 190 194 194 188 190 183 179 165 170 145 
139 88 80 70 52 44 37 39 46 63 74 89 88 110 96 91 
72 49 45 50 34 20 22 14 6 7 32 38 42 37 47 38 34 97 105 100 91 75 78 58 68 67 48 27 12 17 15 22 
17 18 9 23 74 118 152 141 168 178 189 191 190 192 194 197 
197 199 198 199 208 193 195 192 196 188 189 185 185 177 167 147 
140 87 71 61 30 40 52 85 97 109 92 81 90 90 92 112 
116 98 87 73 42 17 21 20 12 9 4 14 12 15 36 41 50 38 102 97 97 92 93 84 76 71 30 8 9 14 16 22 
22 13 6 47 99 144 144 152 190 187 191 196 197 196 195 197 
197 198 202 210 201 202 195 196 199 199 198 196 188 164 156 151 
112 78 83 67 76 74 82 72 59 69 107 149 153 120 117 88 
53 35 35 21 10 8 11 10 12 15 6 10 14 31 39 48 52 46 80 78 57 71 94 108 102 59 16 15 13 16 18 21 
17 14 26 51 99 135 168 180 190 191 193 195 195 194 191 195 
197 197 202 202 206 204 204 199 198 194 197 195 187 171 159 144 
115 101 93 87 73 63 76 86 112 125 113 92 72 57 49 43 
36 35 30 23 20 16 12 11 10 15 14 9 13 19 24 