P2
# Created by IrfanView
80 68
255
255 255 255 255 255 255 255 255 255 255 255 255 255 255 255 255 255 
255 255 255 255 255 255 255 255 255 255 255 255 255 255 255 255 
255 255 255 255 255 255 255 255 255 255 255 255 255 255 255 255 
255 255 255 255 255 255 255 255 255 255 255 255 255 255 255 255 
255 255 255 255 255 255 255 255 255 255 255 255 255 255 255 255 255 255 255 255 255 255 255 255 255 255 255 255 255 255 255 255 
255 255 255 255 255 255 255 255 255 255 255 255 255 255 255 255 
255 255 255 255 255 255 255 255 255 255 255 255 255 255 255 255 
255 255 255 255 255 255 255 255 255 255 255 255 255 255 255 255 
255 255 255 255 255 255 255 255 255 255 255 255 255 255 255 255 255 255 255 255 255 255 255 255 255 255 255 255 255 255 255 255 
255 255 255 255 255 255 255 255 255 255 255 255 255 255 255 255 
255 255 255 255 255 255 255 255 255 255 255 255 255 255 255 255 
255 255 255 255 255 255 255 255 255 255 255 255 255 255 255 255 
255 255 255 255 255 255 255 255 255 255 255 255 255 255 255 255 255 255 255 255 255 255 255 255 255 255 255 255 255 255 255 255 
255 255 255 255 255 255 255 255 255 255 255 255 255 255 255 255 
255 255 255 255 255 255 245 241 255 255 255 255 255 255 255 255 
255 255 255 255 255 255 255 255 255 255 255 255 255 255 255 255 
255 255 255 255 255 255 255 255 255 255 255 255 255 255 255 255 255 255 255 255 255 255 255 255 255 255 255 255 255 255 255 255 
255 255 255 255 255 255 255 255 255 255 255 255 255 255 255 255 
255 255 255 255 255 255 157 155 255 255 255 255 255 255 255 255 
255 255 255 255 255 255 255 255 255 255 255 255 255 255 255 255 
255 255 255 255 255 255 255 255 255 255 255 255 255 255 255 255 255 255 255 255 255 255 255 255 255 255 255 255 255 255 255 255 
255 255 255 255 255 255 255 255 255 255 255 255 255 255 255 255 
255 255 255 255 255 222 126 133 213 255 255 255 255 255 255 255 
255 255 255 255 255 255 255 255 255 255 255 255 255 255 255 255 
255 255 255 255 255 255 255 255 255 255 255 255 255 255 255 255 255 255 255 255 255 255 255 255 255 255 255 255 255 255 255 255 
255 255 255 255 255 255 255 255 255 255 255 255 255 255 255 255 
255 255 255 255 255 148 165 173 142 255 255 255 255 255 255 255 
255 255 255 255 255 255 255 255 255 255 255 255 255 255 255 255 
255 255 255 255 255 255 255 255 255 255 255 255 255 255 255 255 255 255 255 255 255 255 255 255 255 255 255 255 255 255 255 255 
255 255 255 255 255 255 255 255 255 255 255 255 255 255 255 255 
255 255 255 255 197 140 127 131 145 186 255 255 255 255 255 255 
255 255 255 255 255 255 255 255 255 255 255 255 255 255 255 255 
255 255 255 255 255 255 255 255 255 255 255 255 255 255 255 255 255 255 255 255 255 255 255 255 255 255 255 255 255 255 255 255 
255 255 255 255 255 255 255 255 255 255 255 255 255 255 255 255 
255 255 255 255 128 176 255 255 186 123 249 255 255 255 255 255 
255 255 255 255 255 255 255 255 255 255 255 255 255 255 255 255 
255 255 255 255 255 255 255 255 255 255 255 255 255 255 255 255 255 255 255 255 255 255 255 255 255 255 255 255 255 255 255 255 
255 255 255 255 255 255 255 255 255 255 255 255 255 255 255 255 
255 255 255 163 157 121 249 253 127 154 157 255 255 255 255 255 
255 255 255 255 255 255 255 255 255 255 255 255 255 255 255 255 
255 255 255 255 255 255 255 255 255 255 255 255 255 255 255 255 255 255 255 255 255 255 255 255 255 255 255 255 255 255 255 255 
255 255 255 255 255 255 255 255 255 255 255 255 255 255 255 255 
255 255 239 120 202 146 157 163 140 211 120 228 255 255 255 255 
255 255 255 255 255 255 255 255 255 255 255 255 255 255 255 255 
255 255 255 255 255 255 255 255 255 255 255 255 255 255 255 255 255 255 255 255 255 255 255 255 255 255 255 255 255 255 255 255 
255 255 255 255 255 255 255 255 255 255 255 255 255 255 255 255 
255 255 149 145 157 151 137 142 155 154 140 148 255 255 255 255 
255 255 255 255 255 255 255 255 255 255 255 255 255 255 255 255 
255 255 255 255 255 255 255 255 255 255 255 255 255 255 255 255 255 255 255 255 255 255 255 255 255 255 255 255 255 255 255 255 
255 255 255 255 255 255 255 255 255 255 255 255 255 255 255 255 
255 204 123 217 255 255 255 255 255 255 230 123 193 255 255 255 
255 255 255 255 255 255 255 255 255 255 255 255 255 255 255 255 
255 255 255 255 255 255 255 255 255 255 255 255 255 255 255 255 255 255 255 255 255 255 255 255 255 255 255 255 255 255 255 255 
255 255 255 255 255 255 255 255 255 255 255 255 255 255 255 255 
255 145 148 146 255 255 255 255 255 255 146 152 139 255 255 255 
255 255 255 255 255 255 255 255 255 255 255 255 255 255 255 255 
255 255 255 255 255 255 255 255 255 255 255 255 255 255 255 255 255 255 255 255 255 255 255 255 255 255 255 255 255 255 255 255 
255 255 255 255 255 255 255 255 255 255 255 255 255 255 255 255 
178 124 222 123 190 255 255 255 255 200 123 217 128 166 255 255 
255 255 255 255 255 255 255 255 255 255 255 255 255 255 255 255 
255 255 255 255 255 255 255 255 255 255 255 255 255 255 255 255 255 255 255 255 255 255 255 255 255 255 255 255 255 255 255 255 
255 255 255 255 255 255 255 255 255 255 255 255 255 255 255 253 
131 162 148 154 139 255 255 255 255 143 149 152 166 126 247 255 
255 255 255 255 255 255 255 255 255 255 255 255 255 255 255 255 
255 255 255 255 255 255 255 255 255 255 255 255 255 255 255 255 255 255 255 255 255 255 255 255 255 255 255 255 255 255 255 255 
255 255 255 255 255 255 255 255 255 255 255 255 255 255 255 155 
137 255 255 253 130 165 255 255 175 126 245 255 255 142 149 255 
255 255 255 255 255 255 255 255 255 255 255 255 255 255 255 255 
255 255 255 255 255 255 255 255 255 255 255 255 255 255 255 255 255 255 255 255 255 255 255 255 255 255 255 255 255 255 255 255 
255 255 255 255 255 255 255 255 255 255 255 255 255 255 233 124 
168 163 255 154 168 126 245 251 130 163 149 255 173 163 128 222 
255 255 255 255 255 255 255 255 255 255 255 255 255 255 255 255 
255 255 255 255 255 255 255 255 255 255 255 255 255 255 255 255 255 255 255 255 255 255 255 255 255 255 255 255 255 255 255 255 
255 255 255 255 255 255 255 255 255 255 255 255 255 255 146 146 
178 124 222 123 190 143 148 152 139 200 123 217 128 166 146 146 
255 255 255 255 255 255 255 255 255 255 255 255 255 255 255 255 
255 255 255 255 255 255 255 255 255 255 255 255 255 255 255 255 255 255 255 255 255 255 255 255 255 255 255 255 255 255 255 255 
255 255 255 255 255 255 255 255 255 255 255 255 255 213 140 154 
168 162 148 154 168 162 148 152 166 163 149 152 166 163 149 148 
204 255 255 255 255 255 255 255 255 255 255 255 255 255 255 255 
255 255 255 255 255 255 255 255 255 255 255 255 255 255 255 255 255 255 255 255 255 255 255 255 255 255 255 255 255 255 255 255 
255 255 255 255 255 255 255 255 255 255 255 255 255 145 148 255 
255 255 255 255 255 255 255 255 255 255 255 255 255 255 255 152 
140 255 255 255 255 255 255 255 255 255 255 255 255 255 255 255 
255 255 255 255 255 255 255 255 255 255 255 255 255 255 255 255 255 255 255 255 255 255 255 255 255 255 255 255 255 255 255 255 
255 255 255 255 255 255 255 255 255 255 255 255 180 160 131 217 
255 255 255 255 255 255 255 255 255 255 255 255 255 255 228 127 
165 168 255 255 255 255 255 255 255 255 255 255 255 255 255 255 
255 255 255 255 255 255 255 255 255 255 255 255 255 255 255 255 255 255 255 255 255 255 255 255 255 255 255 255 255 255 255 255 
255 255 255 255 255 255 255 255 255 255 255 253 131 162 146 146 
255 255 255 255 255 255 255 255 255 255 255 255 255 255 146 146 
171 127 247 255 255 255 255 255 255 255 255 255 255 255 255 255 
255 255 255 255 255 255 255 255 255 255 255 255 255 255 255 255 255 255 255 255 255 255 255 255 255 255 255 255 255 255 255 255 
255 255 255 255 255 255 255 255 255 255 255 155 168 160 148 152 
188 255 255 255 255 255 255 255 255 255 255 255 255 200 143 152 
165 163 151 255 255 255 255 255 255 255 255 255 255 255 255 255 
255 255 255 255 255 255 255 255 255 255 255 255 255 255 255 255 255 255 255 255 255 255 255 255 255 255 255 255 255 255 255 255 
255 255 255 255 255 255 255 255 255 255 235 123 186 255 255 155 
137 255 255 255 255 255 255 255 255 255 255 255 255 142 149 255 
255 199 123 224 255 255 255 255 255 255 255 255 255 255 255 255 
255 255 255 255 255 255 255 255 255 255 255 255 255 255 255 255 255 255 255 255 255 255 255 255 255 255 255 255 255 255 255 255 
255 255 255 255 255 255 255 255 255 255 146 155 136 255 233 124 
168 163 255 255 255 255 255 255 255 255 255 255 173 163 128 222 
255 142 151 146 255 255 255 255 255 255 255 255 255 255 255 255 
255 255 255 255 255 255 255 255 255 255 255 255 255 255 255 255 255 255 255 255 255 255 255 255 255 255 255 255 255 255 255 255 
255 255 255 255 255 255 255 255 255 207 123 213 131 162 146 146 
178 124 245 255 255 255 255 255 255 255 255 251 128 166 146 146 
171 127 218 123 197 255 255 255 255 255 255 255 255 255 255 255 
255 255 255 255 255 255 255 255 255 255 255 255 255 255 255 255 255 255 255 255 255 255 255 255 255 255 255 255 255 255 255 255 
255 255 255 255 255 255 255 255 255 149 148 155 168 160 148 154 
168 162 152 255 255 255 255 255 255 255 255 157 166 163 149 152 
165 163 151 151 146 253 255 255 255 255 255 255 255 255 255 255 
255 255 255 255 255 255 255 255 255 255 255 255 255 255 255 255 255 255 255 255 255 255 255 255 255 255 255 255 255 255 255 255 
255 255 255 255 255 255 255 255 178 124 239 255 255 255 255 255 
255 202 123 215 255 255 255 255 255 255 228 123 192 255 255 255 
255 255 255 247 127 168 255 255 255 255 255 255 255 255 255 255 
255 255 255 255 255 255 255 255 255 255 255 255 255 255 255 255 255 255 255 255 255 255 255 255 255 255 255 255 255 255 255 255 
255 255 255 255 255 255 255 251 133 163 146 255 255 255 255 255 
255 143 151 145 255 255 255 255 255 255 145 155 139 253 255 255 
255 255 255 149 166 128 247 255 255 255 255 255 255 255 255 255 
255 255 255 255 255 255 255 255 255 255 255 255 255 255 255 255 255 255 255 255 255 255 255 255 255 255 255 255 255 255 255 255 
255 255 255 255 255 255 255 155 136 202 123 213 255 255 255 255 
176 124 218 123 188 255 255 255 255 199 123 213 128 165 255 255 
255 255 224 123 193 140 149 255 255 255 255 255 255 255 255 255 
255 255 255 255 255 255 255 255 255 255 255 255 255 255 255 255 255 255 255 255 255 255 255 255 255 255 255 255 255 255 255 255 
255 255 255 255 255 255 235 126 170 162 151 145 255 255 255 251 
131 165 151 157 139 253 255 255 255 142 152 155 168 127 245 255 
255 255 145 154 166 166 128 224 255 255 255 255 255 255 255 255 
255 255 255 255 255 255 255 255 255 255 255 255 255 255 255 255 255 255 255 255 255 255 255 255 255 255 255 255 255 255 255 255 
255 255 255 255 255 255 145 143 255 255 233 123 185 255 255 154 
137 253 255 251 130 163 255 255 173 126 245 255 255 142 148 255 
255 197 123 222 255 255 145 145 255 255 255 255 255 255 255 255 
255 255 255 255 255 255 255 255 255 255 255 255 255 255 255 255 255 255 255 255 255 255 255 255 255 255 255 255 255 255 255 255 
255 255 255 255 255 207 137 157 185 255 145 158 136 253 232 126 
170 162 255 152 170 126 243 249 130 165 148 255 171 165 130 220 
255 140 152 145 255 195 148 146 195 255 255 255 255 255 255 255 
255 255 255 255 255 255 255 255 255 255 255 255 255 255 255 255 255 255 255 255 255 255 255 255 255 255 255 255 255 255 255 255 
255 255 255 255 255 143 146 155 136 204 123 209 131 160 145 145 
176 124 218 123 188 142 146 152 139 199 123 213 128 166 145 145 
170 127 217 123 193 140 149 149 140 255 255 255 255 255 255 255 
255 255 255 255 255 255 255 255 255 255 255 255 255 255 255 255 255 255 255 255 255 255 255 255 255 255 255 255 255 255 255 255 
255 255 255 255 183 155 151 158 170 162 151 158 170 163 151 157 
170 163 151 157 170 165 151 155 168 165 151 155 168 165 152 154 
168 166 152 154 166 166 154 152 163 171 255 255 255 255 255 255 
255 255 255 255 255 255 255 255 255 255 255 255 255 255 255 255 255 255 255 255 255 255 255 255 255 255 255 255 255 255 255 255 
255 255 255 247 133 154 255 255 255 255 255 255 255 255 255 255 
255 255 255 255 255 255 255 255 255 255 255 255 255 255 255 255 
255 255 255 255 255 255 255 255 163 128 241 255 255 255 255 255 
255 255 255 255 255 255 255 255 255 255 255 255 255 255 255 255 255 255 255 255 255 255 255 255 255 255 255 255 255 255 255 255 
255 255 255 152 175 128 233 255 255 255 255 255 255 255 255 255 
255 255 255 255 255 255 255 255 255 255 255 255 255 255 255 255 
255 255 255 255 255 255 255 241 130 175 146 255 255 255 255 255 
255 255 255 255 255 255 255 255 255 255 255 255 255 255 255 255 255 255 255 255 255 255 255 255 255 255 255 255 255 255 255 255 
255 255 232 124 178 140 142 255 255 255 255 255 255 255 255 255 
255 255 255 255 255 255 255 255 255 255 255 255 255 255 255 255 
255 255 255 255 255 255 255 145 139 186 123 220 255 255 255 255 
255 255 255 255 255 255 255 255 255 255 255 255 255 255 255 255 255 255 255 255 255 255 255 255 255 255 255 255 255 255 255 255 
255 255 137 168 175 170 134 207 255 255 255 255 255 255 255 255 
255 255 255 255 255 255 255 255 255 255 255 255 255 255 255 255 
255 255 255 255 255 255 215 131 173 175 163 137 255 255 255 255 
255 255 255 255 255 255 255 255 255 255 255 255 255 255 255 255 255 255 255 255 255 255 255 255 255 255 255 255 255 255 255 255 
255 197 123 199 255 255 136 136 253 255 255 255 255 255 255 255 
255 255 255 255 255 255 255 255 255 255 255 255 255 255 255 255 
255 255 255 255 255 255 134 134 255 255 209 123 186 255 255 255 
255 255 255 255 255 255 255 255 255 255 255 255 255 255 255 255 255 255 255 255 255 255 255 255 255 255 255 255 255 255 255 255 
253 136 170 136 253 195 148 166 173 255 255 255 255 255 255 255 
255 255 255 255 255 255 255 255 255 255 255 255 255 255 255 255 
255 255 255 255 255 185 157 157 185 255 134 173 136 249 255 255 
255 255 255 255 255 255 255 255 255 255 255 255 255 255 255 255 255 255 255 255 255 255 255 255 255 255 255 255 255 255 255 255 
171 124 195 124 170 136 136 146 133 243 255 255 255 255 255 255 
255 255 255 255 255 255 255 255 255 255 255 255 255 255 255 255 
255 255 255 255 247 136 140 139 136 176 123 193 127 162 255 255 
255 255 255 255 255 255 255 255 255 255 255 255 255 255 255 255 255 255 255 255 255 255 255 255 255 255 255 255 255 255 255 233 
133 180 170 178 183 180 170 178 178 145 255 255 255 255 255 255 
255 255 255 255 255 255 255 255 255 255 255 255 255 255 255 255 
255 255 255 255 155 171 173 173 181 183 175 171 181 131 228 255 
255 255 255 255 255 255 255 255 255 255 255 255 255 255 255 255 255 255 255 255 255 255 255 255 255 255 255 255 255 255 255 140 
131 233 255 255 255 255 255 255 160 124 218 255 255 255 255 255 
255 255 255 255 255 255 255 255 255 255 255 255 255 255 255 255 
255 255 255 226 127 151 255 255 255 255 255 255 241 133 134 255 
255 255 255 255 255 255 255 255 255 255 255 255 255 255 255 255 255 255 255 255 255 255 255 255 255 255 255 255 255 255 217 139 
192 140 255 255 255 255 255 233 134 195 130 255 255 255 255 255 
255 255 255 255 255 255 255 255 255 255 255 255 255 255 255 255 
255 255 255 133 195 136 226 255 255 255 255 255 149 186 143 206 
255 255 255 255 255 255 255 255 255 255 255 255 255 255 255 255 255 255 255 255 255 255 255 255 255 255 255 255 255 255 130 130 
160 124 217 255 255 255 255 139 131 170 123 193 255 255 255 255 
255 255 255 255 255 255 255 255 255 255 255 255 255 255 255 255 
255 255 204 123 166 131 133 255 255 255 255 224 127 152 128 128 
255 255 255 255 255 255 255 255 255 255 255 255 255 255 255 255 255 255 255 255 255 255 255 255 255 255 255 255 255 192 152 193 
195 193 130 255 255 255 215 140 195 193 186 130 253 255 255 255 
255 255 255 255 255 255 255 255 255 255 255 255 255 255 255 255 
255 255 128 188 195 195 145 204 255 255 255 133 195 195 190 160 
180 255 255 255 255 255 255 255 255 255 255 255 255 255 255 255 255 255 255 255 255 255 255 255 255 255 255 255 251 130 130 255 
255 190 123 190 255 255 130 130 253 255 213 123 168 255 255 255 
255 255 255 255 255 255 255 255 255 255 255 255 255 255 255 255 
255 178 123 202 255 255 128 128 255 255 202 123 180 255 255 131 
133 247 255 255 255 255 255 255 255 255 255 255 255 255 255 255 255 255 255 255 255 255 255 255 255 255 255 255 166 175 154 190 
251 131 185 131 251 188 154 173 166 255 130 192 134 237 255 255 
255 255 255 255 255 255 255 255 255 255 255 255 255 255 255 255 
245 133 186 130 255 176 163 163 178 255 130 186 133 245 200 146 
181 155 255 255 255 255 255 255 255 255 255 255 255 255 255 255 255 255 255 255 255 255 255 255 255 255 255 237 131 140 130 131 
162 124 181 124 162 131 130 140 131 171 123 175 130 145 255 255 
255 255 255 255 255 255 255 255 255 255 255 255 255 255 255 255 
154 127 180 123 168 133 134 133 133 166 123 180 127 154 130 130 
149 128 230 255 255 255 255 255 255 255 255 255 255 255 255 255 255 255 255 255 255 255 255 255 255 255 255 134 186 192 185 192 
193 192 185 192 193 193 185 192 193 193 185 192 193 133 213 255 
255 255 255 255 255 255 255 255 255 255 255 255 255 255 255 218 
133 193 186 188 193 193 188 186 193 193 188 186 193 193 188 186 
193 192 126 255 255 255 255 255 255 255 255 255 255 255 255 255 255 255 255 255 255 255 255 255 255 255 207 124 152 255 255 255 
255 255 255 255 255 255 255 255 255 255 255 255 245 126 121 255 
255 255 255 255 255 255 255 255 255 255 255 255 255 255 255 126 
128 235 255 255 255 255 255 255 255 255 255 255 255 255 255 255 
255 163 123 199 255 255 255 255 255 255 255 255 255 255 255 255 255 255 255 255 255 255 255 255 255 255 121 211 134 226 255 255 
255 255 255 255 255 255 255 255 255 255 255 255 151 190 158 185 
255 255 255 255 255 255 255 255 255 255 255 255 255 255 195 151 
197 142 255 255 255 255 255 255 255 255 255 255 255 255 255 255 
235 131 209 121 255 255 255 255 255 255 255 255 255 255 255 255 255 255 255 255 255 255 255 255 255 183 123 155 128 131 255 255 
255 255 255 255 255 255 255 255 255 255 255 224 128 136 121 123 
251 255 255 255 255 255 255 255 255 255 255 255 255 255 121 123 
143 126 217 255 255 255 255 255 255 255 255 255 255 255 255 255 
140 127 158 123 173 255 255 255 255 255 255 255 255 255 255 255 255 255 255 255 255 255 255 255 249 124 204 209 211 145 206 255 
255 255 255 255 255 255 255 255 255 255 255 130 206 209 204 180 
160 255 255 255 255 255 255 255 255 255 255 255 255 170 170 207 
211 209 126 255 255 255 255 255 255 255 255 255 255 255 255 215 
140 211 207 206 127 243 255 255 255 255 255 255 255 255 255 255 255 255 255 255 255 255 255 255 158 124 204 255 249 124 121 255 
255 255 255 255 255 255 255 255 255 255 204 123 158 255 255 130 
130 232 255 255 255 255 255 255 255 255 255 255 241 128 124 255 
255 170 123 193 255 255 255 255 255 255 255 255 255 255 255 124 
127 241 255 213 126 149 255 255 255 255 255 255 255 255 255 255 255 255 255 255 255 255 255 230 133 209 121 255 157 183 162 180 
255 255 255 255 255 255 255 255 255 255 121 209 133 232 202 148 
200 137 255 255 255 255 255 255 255 255 255 255 146 193 154 192 
239 128 206 123 253 255 255 255 255 255 255 255 255 255 190 154 
192 148 255 124 209 137 222 255 255 255 255 255 255 255 255 255 255 255 255 255 255 255 255 136 128 158 123 158 130 133 123 126 
247 255 255 255 255 255 255 255 255 178 123 160 128 137 121 124 
148 124 213 255 255 255 255 255 255 255 255 220 127 140 123 123 
145 126 162 123 168 255 255 255 255 255 255 255 255 253 123 121 
140 127 160 123 155 130 128 255 255 255 255 255 255 255 255 255 255 255 255 255 255 255 199 139 209 207 204 209 209 207 204 176 
149 255 255 255 255 255 255 255 241 117 204 207 209 209 204 207 
209 209 112 255 255 255 255 255 255 255 255 117 206 209 204 206 
209 209 206 206 123 232 255 255 255 255 255 255 255 160 166 204 
209 209 207 204 209 209 142 193 255 255 255 255 255 255 255 255 255 255 255 255 255 255 113 120 241 255 255 255 255 255 255 124 
126 218 255 255 255 255 255 255 143 124 199 255 255 255 255 255 
255 165 123 176 255 255 255 255 255 255 186 123 154 255 255 255 
255 255 255 207 126 134 255 255 255 255 255 255 230 124 117 255 
255 255 255 255 255 249 116 113 255 255 255 255 255 255 255 255 255 255 255 255 255 175 168 199 143 255 255 255 255 255 197 151 
218 124 255 255 255 255 255 218 136 228 115 255 255 255 255 255 
239 123 226 117 249 255 255 255 255 253 113 228 128 230 255 255 
255 255 255 117 226 143 207 255 255 255 255 255 133 209 157 186 
255 255 255 255 255 152 188 176 165 255 255 255 255 255 255 255 255 255 255 255 247 117 113 127 126 217 255 255 255 255 115 120 
137 124 197 255 255 255 255 123 126 142 123 175 255 255 255 255 
142 124 145 123 152 255 255 255 255 162 123 143 126 131 255 255 
255 255 185 123 140 124 117 255 255 255 255 206 126 134 116 115 
253 255 255 255 228 126 120 115 123 239 255 255 255 255 255 255 255 255 255 255 151 192 226 228 220 123 255 255 255 171 170 228 
228 228 115 255 255 255 195 152 228 228 226 119 247 255 255 215 
137 228 226 228 130 228 255 255 237 124 226 228 228 145 206 255 
255 253 115 228 228 228 160 185 255 255 255 117 226 228 228 180 
162 255 255 255 130 213 228 226 200 142 255 255 255 255 255 255 255 255 255 224 127 121 255 255 149 124 195 255 245 120 115 255 
255 171 123 171 255 255 115 119 247 255 193 123 151 255 255 121 
127 226 255 215 127 130 255 255 139 126 204 255 235 124 117 255 
255 160 123 183 255 253 116 115 253 255 183 123 162 255 255 116 
123 237 255 204 124 140 255 255 130 127 215 255 255 255 255 255 255 255 255 128 213 152 193 224 133 226 115 255 148 193 171 171 
245 120 224 120 245 170 171 192 149 255 115 226 131 224 193 154 
213 128 255 120 222 146 204 213 139 226 116 255 139 204 162 181 
235 126 226 116 251 158 183 181 160 251 116 226 126 235 181 162 
202 139 255 116 226 139 215 202 146 220 121 255 255 255 255 255 255 255 202 124 137 119 115 127 127 145 123 143 127 124 115 120 
139 124 146 124 140 120 115 124 127 143 123 145 127 128 115 117 
137 124 146 123 142 123 116 120 126 143 123 145 126 131 115 116 
134 126 146 123 142 124 119 117 124 142 123 146 126 136 116 115 
131 126 145 123 143 126 120 116 123 140 123 192 255 255 255 255 255 255 239 226 226 226 222 226 226 226 222 226 226 226 222 226 
226 226 222 226 226 226 222 226 226 226 222 226 226 226 222 226 
226 226 222 226 226 226 222 224 226 226 224 224 226 226 224 224 
226 226 224 224 226 226 224 224 226 226 224 224 226 226 224 224 
226 226 224 222 226 226 226 222 226 226 226 237 255 255 255 